%TF.GenerationSoftware,KiCad,Pcbnew,7.0.10*%
%TF.CreationDate,2025-03-17T10:36:42-03:00*%
%TF.ProjectId,MicroCerveceria,4d696372-6f43-4657-9276-656365726961,rev?*%
%TF.SameCoordinates,Original*%
%TF.FileFunction,Other,Comment*%
%FSLAX46Y46*%
G04 Gerber Fmt 4.6, Leading zero omitted, Abs format (unit mm)*
G04 Created by KiCad (PCBNEW 7.0.10) date 2025-03-17 10:36:42*
%MOMM*%
%LPD*%
G01*
G04 APERTURE LIST*
%ADD10C,0.150000*%
G04 APERTURE END LIST*
D10*
X117629819Y-59187428D02*
X116629819Y-59187428D01*
X117629819Y-58616000D02*
X117058390Y-59044571D01*
X116629819Y-58616000D02*
X117201247Y-59187428D01*
X117106009Y-58187428D02*
X117106009Y-57854095D01*
X117629819Y-57711238D02*
X117629819Y-58187428D01*
X117629819Y-58187428D02*
X116629819Y-58187428D01*
X116629819Y-58187428D02*
X116629819Y-57711238D01*
X117106009Y-57282666D02*
X117106009Y-56949333D01*
X117629819Y-56806476D02*
X117629819Y-57282666D01*
X117629819Y-57282666D02*
X116629819Y-57282666D01*
X116629819Y-57282666D02*
X116629819Y-56806476D01*
X117629819Y-56377904D02*
X116629819Y-56377904D01*
X116629819Y-56377904D02*
X116629819Y-55996952D01*
X116629819Y-55996952D02*
X116677438Y-55901714D01*
X116677438Y-55901714D02*
X116725057Y-55854095D01*
X116725057Y-55854095D02*
X116820295Y-55806476D01*
X116820295Y-55806476D02*
X116963152Y-55806476D01*
X116963152Y-55806476D02*
X117058390Y-55854095D01*
X117058390Y-55854095D02*
X117106009Y-55901714D01*
X117106009Y-55901714D02*
X117153628Y-55996952D01*
X117153628Y-55996952D02*
X117153628Y-56377904D01*
X117248866Y-55377904D02*
X117248866Y-54616000D01*
X116629819Y-53949333D02*
X116629819Y-53758857D01*
X116629819Y-53758857D02*
X116677438Y-53663619D01*
X116677438Y-53663619D02*
X116772676Y-53568381D01*
X116772676Y-53568381D02*
X116963152Y-53520762D01*
X116963152Y-53520762D02*
X117296485Y-53520762D01*
X117296485Y-53520762D02*
X117486961Y-53568381D01*
X117486961Y-53568381D02*
X117582200Y-53663619D01*
X117582200Y-53663619D02*
X117629819Y-53758857D01*
X117629819Y-53758857D02*
X117629819Y-53949333D01*
X117629819Y-53949333D02*
X117582200Y-54044571D01*
X117582200Y-54044571D02*
X117486961Y-54139809D01*
X117486961Y-54139809D02*
X117296485Y-54187428D01*
X117296485Y-54187428D02*
X116963152Y-54187428D01*
X116963152Y-54187428D02*
X116772676Y-54139809D01*
X116772676Y-54139809D02*
X116677438Y-54044571D01*
X116677438Y-54044571D02*
X116629819Y-53949333D01*
X116629819Y-53092190D02*
X117439342Y-53092190D01*
X117439342Y-53092190D02*
X117534580Y-53044571D01*
X117534580Y-53044571D02*
X117582200Y-52996952D01*
X117582200Y-52996952D02*
X117629819Y-52901714D01*
X117629819Y-52901714D02*
X117629819Y-52711238D01*
X117629819Y-52711238D02*
X117582200Y-52616000D01*
X117582200Y-52616000D02*
X117534580Y-52568381D01*
X117534580Y-52568381D02*
X117439342Y-52520762D01*
X117439342Y-52520762D02*
X116629819Y-52520762D01*
X116629819Y-52187428D02*
X116629819Y-51616000D01*
X117629819Y-51901714D02*
X116629819Y-51901714D01*
X116629819Y-50615999D02*
X116629819Y-49949333D01*
X116629819Y-49949333D02*
X117629819Y-50615999D01*
X117629819Y-50615999D02*
X117629819Y-49949333D01*
X116629819Y-49377904D02*
X116629819Y-49187428D01*
X116629819Y-49187428D02*
X116677438Y-49092190D01*
X116677438Y-49092190D02*
X116772676Y-48996952D01*
X116772676Y-48996952D02*
X116963152Y-48949333D01*
X116963152Y-48949333D02*
X117296485Y-48949333D01*
X117296485Y-48949333D02*
X117486961Y-48996952D01*
X117486961Y-48996952D02*
X117582200Y-49092190D01*
X117582200Y-49092190D02*
X117629819Y-49187428D01*
X117629819Y-49187428D02*
X117629819Y-49377904D01*
X117629819Y-49377904D02*
X117582200Y-49473142D01*
X117582200Y-49473142D02*
X117486961Y-49568380D01*
X117486961Y-49568380D02*
X117296485Y-49615999D01*
X117296485Y-49615999D02*
X116963152Y-49615999D01*
X116963152Y-49615999D02*
X116772676Y-49568380D01*
X116772676Y-49568380D02*
X116677438Y-49473142D01*
X116677438Y-49473142D02*
X116629819Y-49377904D01*
X117629819Y-48520761D02*
X116629819Y-48520761D01*
X116629819Y-48520761D02*
X117629819Y-47949333D01*
X117629819Y-47949333D02*
X116629819Y-47949333D01*
X117106009Y-47473142D02*
X117106009Y-47139809D01*
X117629819Y-46996952D02*
X117629819Y-47473142D01*
X117629819Y-47473142D02*
X116629819Y-47473142D01*
X116629819Y-47473142D02*
X116629819Y-46996952D01*
X114794104Y-55787904D02*
X114794104Y-55311714D01*
X115079819Y-55883142D02*
X114079819Y-55549809D01*
X114079819Y-55549809D02*
X115079819Y-55216476D01*
X114413152Y-54883142D02*
X115079819Y-54883142D01*
X114508390Y-54883142D02*
X114460771Y-54835523D01*
X114460771Y-54835523D02*
X114413152Y-54740285D01*
X114413152Y-54740285D02*
X114413152Y-54597428D01*
X114413152Y-54597428D02*
X114460771Y-54502190D01*
X114460771Y-54502190D02*
X114556009Y-54454571D01*
X114556009Y-54454571D02*
X115079819Y-54454571D01*
X114413152Y-54121237D02*
X114413152Y-53740285D01*
X114079819Y-53978380D02*
X114936961Y-53978380D01*
X114936961Y-53978380D02*
X115032200Y-53930761D01*
X115032200Y-53930761D02*
X115079819Y-53835523D01*
X115079819Y-53835523D02*
X115079819Y-53740285D01*
X115032200Y-53025999D02*
X115079819Y-53121237D01*
X115079819Y-53121237D02*
X115079819Y-53311713D01*
X115079819Y-53311713D02*
X115032200Y-53406951D01*
X115032200Y-53406951D02*
X114936961Y-53454570D01*
X114936961Y-53454570D02*
X114556009Y-53454570D01*
X114556009Y-53454570D02*
X114460771Y-53406951D01*
X114460771Y-53406951D02*
X114413152Y-53311713D01*
X114413152Y-53311713D02*
X114413152Y-53121237D01*
X114413152Y-53121237D02*
X114460771Y-53025999D01*
X114460771Y-53025999D02*
X114556009Y-52978380D01*
X114556009Y-52978380D02*
X114651247Y-52978380D01*
X114651247Y-52978380D02*
X114746485Y-53454570D01*
X114413152Y-52549808D02*
X115079819Y-52549808D01*
X114508390Y-52549808D02*
X114460771Y-52502189D01*
X114460771Y-52502189D02*
X114413152Y-52406951D01*
X114413152Y-52406951D02*
X114413152Y-52264094D01*
X114413152Y-52264094D02*
X114460771Y-52168856D01*
X114460771Y-52168856D02*
X114556009Y-52121237D01*
X114556009Y-52121237D02*
X115079819Y-52121237D01*
X114413152Y-51645046D02*
X115079819Y-51645046D01*
X114508390Y-51645046D02*
X114460771Y-51597427D01*
X114460771Y-51597427D02*
X114413152Y-51502189D01*
X114413152Y-51502189D02*
X114413152Y-51359332D01*
X114413152Y-51359332D02*
X114460771Y-51264094D01*
X114460771Y-51264094D02*
X114556009Y-51216475D01*
X114556009Y-51216475D02*
X115079819Y-51216475D01*
X115079819Y-50311713D02*
X114556009Y-50311713D01*
X114556009Y-50311713D02*
X114460771Y-50359332D01*
X114460771Y-50359332D02*
X114413152Y-50454570D01*
X114413152Y-50454570D02*
X114413152Y-50645046D01*
X114413152Y-50645046D02*
X114460771Y-50740284D01*
X115032200Y-50311713D02*
X115079819Y-50406951D01*
X115079819Y-50406951D02*
X115079819Y-50645046D01*
X115079819Y-50645046D02*
X115032200Y-50740284D01*
X115032200Y-50740284D02*
X114936961Y-50787903D01*
X114936961Y-50787903D02*
X114841723Y-50787903D01*
X114841723Y-50787903D02*
X114746485Y-50740284D01*
X114746485Y-50740284D02*
X114698866Y-50645046D01*
X114698866Y-50645046D02*
X114698866Y-50406951D01*
X114698866Y-50406951D02*
X114651247Y-50311713D01*
%TO.C,H3*%
X119000000Y-115000000D02*
G75*
G03*
X111000000Y-115000000I-4000000J0D01*
G01*
X111000000Y-115000000D02*
G75*
G03*
X119000000Y-115000000I4000000J0D01*
G01*
%TO.C,H2*%
X119000000Y-25000000D02*
G75*
G03*
X111000000Y-25000000I-4000000J0D01*
G01*
X111000000Y-25000000D02*
G75*
G03*
X119000000Y-25000000I4000000J0D01*
G01*
%TO.C,H1*%
X29000000Y-25000000D02*
G75*
G03*
X21000000Y-25000000I-4000000J0D01*
G01*
X21000000Y-25000000D02*
G75*
G03*
X29000000Y-25000000I4000000J0D01*
G01*
%TO.C,H4*%
X29000000Y-115000000D02*
G75*
G03*
X21000000Y-115000000I-4000000J0D01*
G01*
X21000000Y-115000000D02*
G75*
G03*
X29000000Y-115000000I4000000J0D01*
G01*
%TD*%
M02*
