M48
; DRILL file {KiCad 7.0.10} date Mon Mar 17 10:37:51 2025
; FORMAT={-:-/ absolute / metric / decimal}
; #@! TF.CreationDate,2025-03-17T10:37:51-03:00
; #@! TF.GenerationSoftware,Kicad,Pcbnew,7.0.10
; #@! TF.FileFunction,Plated,1,2,PTH
FMAT,2
METRIC
; #@! TA.AperFunction,Plated,PTH,ViaDrill
T1C0.400
; #@! TA.AperFunction,Plated,PTH,ComponentDrill
T2C0.800
; #@! TA.AperFunction,Plated,PTH,ComponentDrill
T3C0.990
; #@! TA.AperFunction,Plated,PTH,ComponentDrill
T4C1.000
; #@! TA.AperFunction,Plated,PTH,ComponentDrill
T5C1.300
; #@! TA.AperFunction,Plated,PTH,ComponentDrill
T6C4.000
%
G90
G05
T1
X23.368Y-84.074
X25.654Y-45.974
X25.654Y-62.992
X26.924Y-83.058
X28.956Y-36.576
X28.956Y-39.913
X28.956Y-43.18
X32.854Y-36.576
X32.854Y-39.913
X32.854Y-43.18
X34.798Y-79.248
X37.338Y-36.576
X37.338Y-39.913
X37.338Y-43.18
X42.672Y-70.866
X44.45Y-58.928
X50.038Y-50.292
X52.832Y-79.756
X53.086Y-58.928
X53.34Y-76.708
X57.15Y-66.294
X66.548Y-76.962
X66.802Y-64.516
X68.072Y-52.07
X70.612Y-64.516
X71.374Y-76.962
X71.882Y-79.756
X76.2Y-35.052
X79.756Y-51.054
X79.756Y-55.118
X80.772Y-64.77
X80.772Y-71.12
X81.534Y-35.052
X85.344Y-76.962
X86.614Y-85.852
X90.932Y-65.024
X90.932Y-80.01
X92.202Y-42.672
X92.202Y-70.104
X94.996Y-60.706
X98.044Y-58.166
X98.806Y-31.496
X100.076Y-39.624
X101.092Y-69.85
X102.108Y-34.544
X103.124Y-66.294
X103.125Y-36.068
X105.156Y-68.326
X105.156Y-73.66
X107.188Y-37.592
X109.728Y-92.71
X110.236Y-72.644
X110.49Y-30.48
X110.998Y-42.545
X111.252Y-48.768
X111.252Y-57.658
X118.11Y-83.566
T2
X64.78Y-36.571
X64.78Y-39.111
X64.78Y-43.683
X64.78Y-46.223
X72.4Y-36.571
X72.4Y-39.111
X72.4Y-43.683
X72.4Y-46.223
T3
X99.05Y-24.087
X103.55Y-24.087
T4
X34.55Y-89.9
X45.804Y-72.938
X46.55Y-89.9
X50.304Y-72.938
X53.141Y-89.9
X65.141Y-89.9
X71.85Y-89.9
X83.85Y-89.9
X90.65Y-89.9
X102.65Y-89.9
X105.156Y-78.232
X107.696Y-78.232
X110.236Y-78.232
X112.776Y-78.232
X115.316Y-78.232
X117.856Y-78.232
T5
X34.55Y-102.1
X34.954Y-63.188
X34.954Y-68.188
X35.515Y-113.091
X39.87Y-26.75
X40.595Y-113.091
X40.6Y-87.95
X44.95Y-26.75
X45.675Y-113.091
X46.6Y-102.15
X52.588Y-26.75
X53.141Y-102.1
X53.852Y-113.125
X57.668Y-26.75
X58.932Y-113.125
X59.191Y-87.95
X64.012Y-113.125
X65.191Y-102.15
X65.288Y-26.75
X70.368Y-26.75
X71.85Y-102.1
X73.069Y-113.075
X77.9Y-87.95
X78.149Y-113.075
X78.745Y-26.563
X83.229Y-113.075
X83.825Y-26.563
X83.9Y-102.15
X88.905Y-26.563
X90.65Y-102.1
X91.615Y-112.95
X96.695Y-112.95
X96.7Y-87.95
X97.8Y-26.578
X101.775Y-112.95
X102.7Y-102.15
X104.81Y-26.578
T6
X25.0Y-25.0
X25.0Y-115.0
X115.0Y-25.0
X115.0Y-115.0
M30
