%TF.GenerationSoftware,KiCad,Pcbnew,7.0.10*%
%TF.CreationDate,2025-03-17T10:36:42-03:00*%
%TF.ProjectId,MicroCerveceria,4d696372-6f43-4657-9276-656365726961,rev?*%
%TF.SameCoordinates,Original*%
%TF.FileFunction,Legend,Top*%
%TF.FilePolarity,Positive*%
%FSLAX46Y46*%
G04 Gerber Fmt 4.6, Leading zero omitted, Abs format (unit mm)*
G04 Created by KiCad (PCBNEW 7.0.10) date 2025-03-17 10:36:42*
%MOMM*%
%LPD*%
G01*
G04 APERTURE LIST*
%ADD10C,0.300000*%
%ADD11C,0.150000*%
%ADD12C,0.120000*%
G04 APERTURE END LIST*
D10*
X56942510Y-60885828D02*
X56942510Y-59385828D01*
X56942510Y-59385828D02*
X57442510Y-60457257D01*
X57442510Y-60457257D02*
X57942510Y-59385828D01*
X57942510Y-59385828D02*
X57942510Y-60885828D01*
X58656796Y-60885828D02*
X58656796Y-59885828D01*
X58656796Y-59385828D02*
X58585368Y-59457257D01*
X58585368Y-59457257D02*
X58656796Y-59528685D01*
X58656796Y-59528685D02*
X58728225Y-59457257D01*
X58728225Y-59457257D02*
X58656796Y-59385828D01*
X58656796Y-59385828D02*
X58656796Y-59528685D01*
X60013940Y-60814400D02*
X59871082Y-60885828D01*
X59871082Y-60885828D02*
X59585368Y-60885828D01*
X59585368Y-60885828D02*
X59442511Y-60814400D01*
X59442511Y-60814400D02*
X59371082Y-60742971D01*
X59371082Y-60742971D02*
X59299654Y-60600114D01*
X59299654Y-60600114D02*
X59299654Y-60171542D01*
X59299654Y-60171542D02*
X59371082Y-60028685D01*
X59371082Y-60028685D02*
X59442511Y-59957257D01*
X59442511Y-59957257D02*
X59585368Y-59885828D01*
X59585368Y-59885828D02*
X59871082Y-59885828D01*
X59871082Y-59885828D02*
X60013940Y-59957257D01*
X60656796Y-60885828D02*
X60656796Y-59885828D01*
X60656796Y-60171542D02*
X60728225Y-60028685D01*
X60728225Y-60028685D02*
X60799654Y-59957257D01*
X60799654Y-59957257D02*
X60942511Y-59885828D01*
X60942511Y-59885828D02*
X61085368Y-59885828D01*
X61799653Y-60885828D02*
X61656796Y-60814400D01*
X61656796Y-60814400D02*
X61585367Y-60742971D01*
X61585367Y-60742971D02*
X61513939Y-60600114D01*
X61513939Y-60600114D02*
X61513939Y-60171542D01*
X61513939Y-60171542D02*
X61585367Y-60028685D01*
X61585367Y-60028685D02*
X61656796Y-59957257D01*
X61656796Y-59957257D02*
X61799653Y-59885828D01*
X61799653Y-59885828D02*
X62013939Y-59885828D01*
X62013939Y-59885828D02*
X62156796Y-59957257D01*
X62156796Y-59957257D02*
X62228225Y-60028685D01*
X62228225Y-60028685D02*
X62299653Y-60171542D01*
X62299653Y-60171542D02*
X62299653Y-60600114D01*
X62299653Y-60600114D02*
X62228225Y-60742971D01*
X62228225Y-60742971D02*
X62156796Y-60814400D01*
X62156796Y-60814400D02*
X62013939Y-60885828D01*
X62013939Y-60885828D02*
X61799653Y-60885828D01*
X62942510Y-60314400D02*
X64085368Y-60314400D01*
X64799653Y-60885828D02*
X64799653Y-59385828D01*
X64799653Y-59385828D02*
X65299653Y-60457257D01*
X65299653Y-60457257D02*
X65799653Y-59385828D01*
X65799653Y-59385828D02*
X65799653Y-60885828D01*
X66728225Y-60885828D02*
X66585368Y-60814400D01*
X66585368Y-60814400D02*
X66513939Y-60742971D01*
X66513939Y-60742971D02*
X66442511Y-60600114D01*
X66442511Y-60600114D02*
X66442511Y-60171542D01*
X66442511Y-60171542D02*
X66513939Y-60028685D01*
X66513939Y-60028685D02*
X66585368Y-59957257D01*
X66585368Y-59957257D02*
X66728225Y-59885828D01*
X66728225Y-59885828D02*
X66942511Y-59885828D01*
X66942511Y-59885828D02*
X67085368Y-59957257D01*
X67085368Y-59957257D02*
X67156797Y-60028685D01*
X67156797Y-60028685D02*
X67228225Y-60171542D01*
X67228225Y-60171542D02*
X67228225Y-60600114D01*
X67228225Y-60600114D02*
X67156797Y-60742971D01*
X67156797Y-60742971D02*
X67085368Y-60814400D01*
X67085368Y-60814400D02*
X66942511Y-60885828D01*
X66942511Y-60885828D02*
X66728225Y-60885828D01*
X67871082Y-59885828D02*
X67871082Y-60885828D01*
X67871082Y-60028685D02*
X67942511Y-59957257D01*
X67942511Y-59957257D02*
X68085368Y-59885828D01*
X68085368Y-59885828D02*
X68299654Y-59885828D01*
X68299654Y-59885828D02*
X68442511Y-59957257D01*
X68442511Y-59957257D02*
X68513940Y-60100114D01*
X68513940Y-60100114D02*
X68513940Y-60885828D01*
X69228225Y-60885828D02*
X69228225Y-59885828D01*
X69228225Y-59385828D02*
X69156797Y-59457257D01*
X69156797Y-59457257D02*
X69228225Y-59528685D01*
X69228225Y-59528685D02*
X69299654Y-59457257D01*
X69299654Y-59457257D02*
X69228225Y-59385828D01*
X69228225Y-59385828D02*
X69228225Y-59528685D01*
X69728226Y-59885828D02*
X70299654Y-59885828D01*
X69942511Y-59385828D02*
X69942511Y-60671542D01*
X69942511Y-60671542D02*
X70013940Y-60814400D01*
X70013940Y-60814400D02*
X70156797Y-60885828D01*
X70156797Y-60885828D02*
X70299654Y-60885828D01*
X71013940Y-60885828D02*
X70871083Y-60814400D01*
X70871083Y-60814400D02*
X70799654Y-60742971D01*
X70799654Y-60742971D02*
X70728226Y-60600114D01*
X70728226Y-60600114D02*
X70728226Y-60171542D01*
X70728226Y-60171542D02*
X70799654Y-60028685D01*
X70799654Y-60028685D02*
X70871083Y-59957257D01*
X70871083Y-59957257D02*
X71013940Y-59885828D01*
X71013940Y-59885828D02*
X71228226Y-59885828D01*
X71228226Y-59885828D02*
X71371083Y-59957257D01*
X71371083Y-59957257D02*
X71442512Y-60028685D01*
X71442512Y-60028685D02*
X71513940Y-60171542D01*
X71513940Y-60171542D02*
X71513940Y-60600114D01*
X71513940Y-60600114D02*
X71442512Y-60742971D01*
X71442512Y-60742971D02*
X71371083Y-60814400D01*
X71371083Y-60814400D02*
X71228226Y-60885828D01*
X71228226Y-60885828D02*
X71013940Y-60885828D01*
X72156797Y-60885828D02*
X72156797Y-59885828D01*
X72156797Y-60171542D02*
X72228226Y-60028685D01*
X72228226Y-60028685D02*
X72299655Y-59957257D01*
X72299655Y-59957257D02*
X72442512Y-59885828D01*
X72442512Y-59885828D02*
X72585369Y-59885828D01*
X74085368Y-59885828D02*
X74442511Y-60885828D01*
X74442511Y-60885828D02*
X74799654Y-59885828D01*
X75371082Y-60742971D02*
X75442511Y-60814400D01*
X75442511Y-60814400D02*
X75371082Y-60885828D01*
X75371082Y-60885828D02*
X75299654Y-60814400D01*
X75299654Y-60814400D02*
X75371082Y-60742971D01*
X75371082Y-60742971D02*
X75371082Y-60885828D01*
X76871083Y-61028685D02*
X78013940Y-61028685D01*
X79513939Y-60742971D02*
X79585368Y-60814400D01*
X79585368Y-60814400D02*
X79513939Y-60885828D01*
X79513939Y-60885828D02*
X79442511Y-60814400D01*
X79442511Y-60814400D02*
X79513939Y-60742971D01*
X79513939Y-60742971D02*
X79513939Y-60885828D01*
X81013940Y-61028685D02*
X82156797Y-61028685D01*
X59871082Y-62300828D02*
X59871082Y-63300828D01*
X59513939Y-61729400D02*
X59156796Y-62800828D01*
X59156796Y-62800828D02*
X60085367Y-62800828D01*
X60585367Y-63229400D02*
X60799653Y-63300828D01*
X60799653Y-63300828D02*
X61156795Y-63300828D01*
X61156795Y-63300828D02*
X61299653Y-63229400D01*
X61299653Y-63229400D02*
X61371081Y-63157971D01*
X61371081Y-63157971D02*
X61442510Y-63015114D01*
X61442510Y-63015114D02*
X61442510Y-62872257D01*
X61442510Y-62872257D02*
X61371081Y-62729400D01*
X61371081Y-62729400D02*
X61299653Y-62657971D01*
X61299653Y-62657971D02*
X61156795Y-62586542D01*
X61156795Y-62586542D02*
X60871081Y-62515114D01*
X60871081Y-62515114D02*
X60728224Y-62443685D01*
X60728224Y-62443685D02*
X60656795Y-62372257D01*
X60656795Y-62372257D02*
X60585367Y-62229400D01*
X60585367Y-62229400D02*
X60585367Y-62086542D01*
X60585367Y-62086542D02*
X60656795Y-61943685D01*
X60656795Y-61943685D02*
X60728224Y-61872257D01*
X60728224Y-61872257D02*
X60871081Y-61800828D01*
X60871081Y-61800828D02*
X61228224Y-61800828D01*
X61228224Y-61800828D02*
X61442510Y-61872257D01*
X62013938Y-61943685D02*
X62085366Y-61872257D01*
X62085366Y-61872257D02*
X62228224Y-61800828D01*
X62228224Y-61800828D02*
X62585366Y-61800828D01*
X62585366Y-61800828D02*
X62728224Y-61872257D01*
X62728224Y-61872257D02*
X62799652Y-61943685D01*
X62799652Y-61943685D02*
X62871081Y-62086542D01*
X62871081Y-62086542D02*
X62871081Y-62229400D01*
X62871081Y-62229400D02*
X62799652Y-62443685D01*
X62799652Y-62443685D02*
X61942509Y-63300828D01*
X61942509Y-63300828D02*
X62871081Y-63300828D01*
X63513937Y-62515114D02*
X64013937Y-62515114D01*
X64228223Y-63300828D02*
X63513937Y-63300828D01*
X63513937Y-63300828D02*
X63513937Y-61800828D01*
X63513937Y-61800828D02*
X64228223Y-61800828D01*
X65656795Y-63300828D02*
X64799652Y-63300828D01*
X65228223Y-63300828D02*
X65228223Y-61800828D01*
X65228223Y-61800828D02*
X65085366Y-62015114D01*
X65085366Y-62015114D02*
X64942509Y-62157971D01*
X64942509Y-62157971D02*
X64799652Y-62229400D01*
X66156794Y-61800828D02*
X66513937Y-63300828D01*
X66513937Y-63300828D02*
X66799651Y-62229400D01*
X66799651Y-62229400D02*
X67085366Y-63300828D01*
X67085366Y-63300828D02*
X67442509Y-61800828D01*
X68013937Y-63300828D02*
X68013937Y-61800828D01*
X69585366Y-63300828D02*
X69085366Y-62586542D01*
X68728223Y-63300828D02*
X68728223Y-61800828D01*
X68728223Y-61800828D02*
X69299652Y-61800828D01*
X69299652Y-61800828D02*
X69442509Y-61872257D01*
X69442509Y-61872257D02*
X69513938Y-61943685D01*
X69513938Y-61943685D02*
X69585366Y-62086542D01*
X69585366Y-62086542D02*
X69585366Y-62300828D01*
X69585366Y-62300828D02*
X69513938Y-62443685D01*
X69513938Y-62443685D02*
X69442509Y-62515114D01*
X69442509Y-62515114D02*
X69299652Y-62586542D01*
X69299652Y-62586542D02*
X68728223Y-62586542D01*
X70228223Y-62515114D02*
X70728223Y-62515114D01*
X70942509Y-63300828D02*
X70228223Y-63300828D01*
X70228223Y-63300828D02*
X70228223Y-61800828D01*
X70228223Y-61800828D02*
X70942509Y-61800828D01*
D11*
X73207714Y-81079819D02*
X73207714Y-80079819D01*
X73207714Y-80079819D02*
X73445809Y-80079819D01*
X73445809Y-80079819D02*
X73588666Y-80127438D01*
X73588666Y-80127438D02*
X73683904Y-80222676D01*
X73683904Y-80222676D02*
X73731523Y-80317914D01*
X73731523Y-80317914D02*
X73779142Y-80508390D01*
X73779142Y-80508390D02*
X73779142Y-80651247D01*
X73779142Y-80651247D02*
X73731523Y-80841723D01*
X73731523Y-80841723D02*
X73683904Y-80936961D01*
X73683904Y-80936961D02*
X73588666Y-81032200D01*
X73588666Y-81032200D02*
X73445809Y-81079819D01*
X73445809Y-81079819D02*
X73207714Y-81079819D01*
X74731523Y-81079819D02*
X74160095Y-81079819D01*
X74445809Y-81079819D02*
X74445809Y-80079819D01*
X74445809Y-80079819D02*
X74350571Y-80222676D01*
X74350571Y-80222676D02*
X74255333Y-80317914D01*
X74255333Y-80317914D02*
X74160095Y-80365533D01*
X75112476Y-80175057D02*
X75160095Y-80127438D01*
X75160095Y-80127438D02*
X75255333Y-80079819D01*
X75255333Y-80079819D02*
X75493428Y-80079819D01*
X75493428Y-80079819D02*
X75588666Y-80127438D01*
X75588666Y-80127438D02*
X75636285Y-80175057D01*
X75636285Y-80175057D02*
X75683904Y-80270295D01*
X75683904Y-80270295D02*
X75683904Y-80365533D01*
X75683904Y-80365533D02*
X75636285Y-80508390D01*
X75636285Y-80508390D02*
X75064857Y-81079819D01*
X75064857Y-81079819D02*
X75683904Y-81079819D01*
X87954819Y-96788094D02*
X86954819Y-96788094D01*
X87954819Y-96216666D02*
X87383390Y-96645237D01*
X86954819Y-96216666D02*
X87526247Y-96788094D01*
X87288152Y-95359523D02*
X87954819Y-95359523D01*
X86907200Y-95597618D02*
X87621485Y-95835713D01*
X87621485Y-95835713D02*
X87621485Y-95216666D01*
X101528761Y-86175057D02*
X101433523Y-86127438D01*
X101433523Y-86127438D02*
X101338285Y-86032200D01*
X101338285Y-86032200D02*
X101195428Y-85889342D01*
X101195428Y-85889342D02*
X101100190Y-85841723D01*
X101100190Y-85841723D02*
X101004952Y-85841723D01*
X101052571Y-86079819D02*
X100957333Y-86032200D01*
X100957333Y-86032200D02*
X100862095Y-85936961D01*
X100862095Y-85936961D02*
X100814476Y-85746485D01*
X100814476Y-85746485D02*
X100814476Y-85413152D01*
X100814476Y-85413152D02*
X100862095Y-85222676D01*
X100862095Y-85222676D02*
X100957333Y-85127438D01*
X100957333Y-85127438D02*
X101052571Y-85079819D01*
X101052571Y-85079819D02*
X101243047Y-85079819D01*
X101243047Y-85079819D02*
X101338285Y-85127438D01*
X101338285Y-85127438D02*
X101433523Y-85222676D01*
X101433523Y-85222676D02*
X101481142Y-85413152D01*
X101481142Y-85413152D02*
X101481142Y-85746485D01*
X101481142Y-85746485D02*
X101433523Y-85936961D01*
X101433523Y-85936961D02*
X101338285Y-86032200D01*
X101338285Y-86032200D02*
X101243047Y-86079819D01*
X101243047Y-86079819D02*
X101052571Y-86079819D01*
X102338285Y-85413152D02*
X102338285Y-86079819D01*
X102100190Y-85032200D02*
X101862095Y-85746485D01*
X101862095Y-85746485D02*
X102481142Y-85746485D01*
X96861333Y-36776819D02*
X96528000Y-36300628D01*
X96289905Y-36776819D02*
X96289905Y-35776819D01*
X96289905Y-35776819D02*
X96670857Y-35776819D01*
X96670857Y-35776819D02*
X96766095Y-35824438D01*
X96766095Y-35824438D02*
X96813714Y-35872057D01*
X96813714Y-35872057D02*
X96861333Y-35967295D01*
X96861333Y-35967295D02*
X96861333Y-36110152D01*
X96861333Y-36110152D02*
X96813714Y-36205390D01*
X96813714Y-36205390D02*
X96766095Y-36253009D01*
X96766095Y-36253009D02*
X96670857Y-36300628D01*
X96670857Y-36300628D02*
X96289905Y-36300628D01*
X97432762Y-36205390D02*
X97337524Y-36157771D01*
X97337524Y-36157771D02*
X97289905Y-36110152D01*
X97289905Y-36110152D02*
X97242286Y-36014914D01*
X97242286Y-36014914D02*
X97242286Y-35967295D01*
X97242286Y-35967295D02*
X97289905Y-35872057D01*
X97289905Y-35872057D02*
X97337524Y-35824438D01*
X97337524Y-35824438D02*
X97432762Y-35776819D01*
X97432762Y-35776819D02*
X97623238Y-35776819D01*
X97623238Y-35776819D02*
X97718476Y-35824438D01*
X97718476Y-35824438D02*
X97766095Y-35872057D01*
X97766095Y-35872057D02*
X97813714Y-35967295D01*
X97813714Y-35967295D02*
X97813714Y-36014914D01*
X97813714Y-36014914D02*
X97766095Y-36110152D01*
X97766095Y-36110152D02*
X97718476Y-36157771D01*
X97718476Y-36157771D02*
X97623238Y-36205390D01*
X97623238Y-36205390D02*
X97432762Y-36205390D01*
X97432762Y-36205390D02*
X97337524Y-36253009D01*
X97337524Y-36253009D02*
X97289905Y-36300628D01*
X97289905Y-36300628D02*
X97242286Y-36395866D01*
X97242286Y-36395866D02*
X97242286Y-36586342D01*
X97242286Y-36586342D02*
X97289905Y-36681580D01*
X97289905Y-36681580D02*
X97337524Y-36729200D01*
X97337524Y-36729200D02*
X97432762Y-36776819D01*
X97432762Y-36776819D02*
X97623238Y-36776819D01*
X97623238Y-36776819D02*
X97718476Y-36729200D01*
X97718476Y-36729200D02*
X97766095Y-36681580D01*
X97766095Y-36681580D02*
X97813714Y-36586342D01*
X97813714Y-36586342D02*
X97813714Y-36395866D01*
X97813714Y-36395866D02*
X97766095Y-36300628D01*
X97766095Y-36300628D02*
X97718476Y-36253009D01*
X97718476Y-36253009D02*
X97623238Y-36205390D01*
X47293580Y-49554666D02*
X47341200Y-49602285D01*
X47341200Y-49602285D02*
X47388819Y-49745142D01*
X47388819Y-49745142D02*
X47388819Y-49840380D01*
X47388819Y-49840380D02*
X47341200Y-49983237D01*
X47341200Y-49983237D02*
X47245961Y-50078475D01*
X47245961Y-50078475D02*
X47150723Y-50126094D01*
X47150723Y-50126094D02*
X46960247Y-50173713D01*
X46960247Y-50173713D02*
X46817390Y-50173713D01*
X46817390Y-50173713D02*
X46626914Y-50126094D01*
X46626914Y-50126094D02*
X46531676Y-50078475D01*
X46531676Y-50078475D02*
X46436438Y-49983237D01*
X46436438Y-49983237D02*
X46388819Y-49840380D01*
X46388819Y-49840380D02*
X46388819Y-49745142D01*
X46388819Y-49745142D02*
X46436438Y-49602285D01*
X46436438Y-49602285D02*
X46484057Y-49554666D01*
X47388819Y-48602285D02*
X47388819Y-49173713D01*
X47388819Y-48887999D02*
X46388819Y-48887999D01*
X46388819Y-48887999D02*
X46531676Y-48983237D01*
X46531676Y-48983237D02*
X46626914Y-49078475D01*
X46626914Y-49078475D02*
X46674533Y-49173713D01*
X26957142Y-95704819D02*
X26623809Y-95228628D01*
X26385714Y-95704819D02*
X26385714Y-94704819D01*
X26385714Y-94704819D02*
X26766666Y-94704819D01*
X26766666Y-94704819D02*
X26861904Y-94752438D01*
X26861904Y-94752438D02*
X26909523Y-94800057D01*
X26909523Y-94800057D02*
X26957142Y-94895295D01*
X26957142Y-94895295D02*
X26957142Y-95038152D01*
X26957142Y-95038152D02*
X26909523Y-95133390D01*
X26909523Y-95133390D02*
X26861904Y-95181009D01*
X26861904Y-95181009D02*
X26766666Y-95228628D01*
X26766666Y-95228628D02*
X26385714Y-95228628D01*
X27909523Y-95704819D02*
X27338095Y-95704819D01*
X27623809Y-95704819D02*
X27623809Y-94704819D01*
X27623809Y-94704819D02*
X27528571Y-94847676D01*
X27528571Y-94847676D02*
X27433333Y-94942914D01*
X27433333Y-94942914D02*
X27338095Y-94990533D01*
X28242857Y-94704819D02*
X28861904Y-94704819D01*
X28861904Y-94704819D02*
X28528571Y-95085771D01*
X28528571Y-95085771D02*
X28671428Y-95085771D01*
X28671428Y-95085771D02*
X28766666Y-95133390D01*
X28766666Y-95133390D02*
X28814285Y-95181009D01*
X28814285Y-95181009D02*
X28861904Y-95276247D01*
X28861904Y-95276247D02*
X28861904Y-95514342D01*
X28861904Y-95514342D02*
X28814285Y-95609580D01*
X28814285Y-95609580D02*
X28766666Y-95657200D01*
X28766666Y-95657200D02*
X28671428Y-95704819D01*
X28671428Y-95704819D02*
X28385714Y-95704819D01*
X28385714Y-95704819D02*
X28290476Y-95657200D01*
X28290476Y-95657200D02*
X28242857Y-95609580D01*
X41993580Y-75954666D02*
X42041200Y-76002285D01*
X42041200Y-76002285D02*
X42088819Y-76145142D01*
X42088819Y-76145142D02*
X42088819Y-76240380D01*
X42088819Y-76240380D02*
X42041200Y-76383237D01*
X42041200Y-76383237D02*
X41945961Y-76478475D01*
X41945961Y-76478475D02*
X41850723Y-76526094D01*
X41850723Y-76526094D02*
X41660247Y-76573713D01*
X41660247Y-76573713D02*
X41517390Y-76573713D01*
X41517390Y-76573713D02*
X41326914Y-76526094D01*
X41326914Y-76526094D02*
X41231676Y-76478475D01*
X41231676Y-76478475D02*
X41136438Y-76383237D01*
X41136438Y-76383237D02*
X41088819Y-76240380D01*
X41088819Y-76240380D02*
X41088819Y-76145142D01*
X41088819Y-76145142D02*
X41136438Y-76002285D01*
X41136438Y-76002285D02*
X41184057Y-75954666D01*
X41088819Y-75621332D02*
X41088819Y-74954666D01*
X41088819Y-74954666D02*
X42088819Y-75383237D01*
X94099142Y-64208819D02*
X93765809Y-63732628D01*
X93527714Y-64208819D02*
X93527714Y-63208819D01*
X93527714Y-63208819D02*
X93908666Y-63208819D01*
X93908666Y-63208819D02*
X94003904Y-63256438D01*
X94003904Y-63256438D02*
X94051523Y-63304057D01*
X94051523Y-63304057D02*
X94099142Y-63399295D01*
X94099142Y-63399295D02*
X94099142Y-63542152D01*
X94099142Y-63542152D02*
X94051523Y-63637390D01*
X94051523Y-63637390D02*
X94003904Y-63685009D01*
X94003904Y-63685009D02*
X93908666Y-63732628D01*
X93908666Y-63732628D02*
X93527714Y-63732628D01*
X95051523Y-64208819D02*
X94480095Y-64208819D01*
X94765809Y-64208819D02*
X94765809Y-63208819D01*
X94765809Y-63208819D02*
X94670571Y-63351676D01*
X94670571Y-63351676D02*
X94575333Y-63446914D01*
X94575333Y-63446914D02*
X94480095Y-63494533D01*
X95956285Y-63208819D02*
X95480095Y-63208819D01*
X95480095Y-63208819D02*
X95432476Y-63685009D01*
X95432476Y-63685009D02*
X95480095Y-63637390D01*
X95480095Y-63637390D02*
X95575333Y-63589771D01*
X95575333Y-63589771D02*
X95813428Y-63589771D01*
X95813428Y-63589771D02*
X95908666Y-63637390D01*
X95908666Y-63637390D02*
X95956285Y-63685009D01*
X95956285Y-63685009D02*
X96003904Y-63780247D01*
X96003904Y-63780247D02*
X96003904Y-64018342D01*
X96003904Y-64018342D02*
X95956285Y-64113580D01*
X95956285Y-64113580D02*
X95908666Y-64161200D01*
X95908666Y-64161200D02*
X95813428Y-64208819D01*
X95813428Y-64208819D02*
X95575333Y-64208819D01*
X95575333Y-64208819D02*
X95480095Y-64161200D01*
X95480095Y-64161200D02*
X95432476Y-64113580D01*
X94575333Y-70304819D02*
X94242000Y-69828628D01*
X94003905Y-70304819D02*
X94003905Y-69304819D01*
X94003905Y-69304819D02*
X94384857Y-69304819D01*
X94384857Y-69304819D02*
X94480095Y-69352438D01*
X94480095Y-69352438D02*
X94527714Y-69400057D01*
X94527714Y-69400057D02*
X94575333Y-69495295D01*
X94575333Y-69495295D02*
X94575333Y-69638152D01*
X94575333Y-69638152D02*
X94527714Y-69733390D01*
X94527714Y-69733390D02*
X94480095Y-69781009D01*
X94480095Y-69781009D02*
X94384857Y-69828628D01*
X94384857Y-69828628D02*
X94003905Y-69828628D01*
X95432476Y-69638152D02*
X95432476Y-70304819D01*
X95194381Y-69257200D02*
X94956286Y-69971485D01*
X94956286Y-69971485D02*
X95575333Y-69971485D01*
X112149142Y-88584819D02*
X111815809Y-88108628D01*
X111577714Y-88584819D02*
X111577714Y-87584819D01*
X111577714Y-87584819D02*
X111958666Y-87584819D01*
X111958666Y-87584819D02*
X112053904Y-87632438D01*
X112053904Y-87632438D02*
X112101523Y-87680057D01*
X112101523Y-87680057D02*
X112149142Y-87775295D01*
X112149142Y-87775295D02*
X112149142Y-87918152D01*
X112149142Y-87918152D02*
X112101523Y-88013390D01*
X112101523Y-88013390D02*
X112053904Y-88061009D01*
X112053904Y-88061009D02*
X111958666Y-88108628D01*
X111958666Y-88108628D02*
X111577714Y-88108628D01*
X113101523Y-88584819D02*
X112530095Y-88584819D01*
X112815809Y-88584819D02*
X112815809Y-87584819D01*
X112815809Y-87584819D02*
X112720571Y-87727676D01*
X112720571Y-87727676D02*
X112625333Y-87822914D01*
X112625333Y-87822914D02*
X112530095Y-87870533D01*
X113672952Y-88013390D02*
X113577714Y-87965771D01*
X113577714Y-87965771D02*
X113530095Y-87918152D01*
X113530095Y-87918152D02*
X113482476Y-87822914D01*
X113482476Y-87822914D02*
X113482476Y-87775295D01*
X113482476Y-87775295D02*
X113530095Y-87680057D01*
X113530095Y-87680057D02*
X113577714Y-87632438D01*
X113577714Y-87632438D02*
X113672952Y-87584819D01*
X113672952Y-87584819D02*
X113863428Y-87584819D01*
X113863428Y-87584819D02*
X113958666Y-87632438D01*
X113958666Y-87632438D02*
X114006285Y-87680057D01*
X114006285Y-87680057D02*
X114053904Y-87775295D01*
X114053904Y-87775295D02*
X114053904Y-87822914D01*
X114053904Y-87822914D02*
X114006285Y-87918152D01*
X114006285Y-87918152D02*
X113958666Y-87965771D01*
X113958666Y-87965771D02*
X113863428Y-88013390D01*
X113863428Y-88013390D02*
X113672952Y-88013390D01*
X113672952Y-88013390D02*
X113577714Y-88061009D01*
X113577714Y-88061009D02*
X113530095Y-88108628D01*
X113530095Y-88108628D02*
X113482476Y-88203866D01*
X113482476Y-88203866D02*
X113482476Y-88394342D01*
X113482476Y-88394342D02*
X113530095Y-88489580D01*
X113530095Y-88489580D02*
X113577714Y-88537200D01*
X113577714Y-88537200D02*
X113672952Y-88584819D01*
X113672952Y-88584819D02*
X113863428Y-88584819D01*
X113863428Y-88584819D02*
X113958666Y-88537200D01*
X113958666Y-88537200D02*
X114006285Y-88489580D01*
X114006285Y-88489580D02*
X114053904Y-88394342D01*
X114053904Y-88394342D02*
X114053904Y-88203866D01*
X114053904Y-88203866D02*
X114006285Y-88108628D01*
X114006285Y-88108628D02*
X113958666Y-88061009D01*
X113958666Y-88061009D02*
X113863428Y-88013390D01*
X50445819Y-96788094D02*
X49445819Y-96788094D01*
X50445819Y-96216666D02*
X49874390Y-96645237D01*
X49445819Y-96216666D02*
X50017247Y-96788094D01*
X49541057Y-95835713D02*
X49493438Y-95788094D01*
X49493438Y-95788094D02*
X49445819Y-95692856D01*
X49445819Y-95692856D02*
X49445819Y-95454761D01*
X49445819Y-95454761D02*
X49493438Y-95359523D01*
X49493438Y-95359523D02*
X49541057Y-95311904D01*
X49541057Y-95311904D02*
X49636295Y-95264285D01*
X49636295Y-95264285D02*
X49731533Y-95264285D01*
X49731533Y-95264285D02*
X49874390Y-95311904D01*
X49874390Y-95311904D02*
X50445819Y-95883332D01*
X50445819Y-95883332D02*
X50445819Y-95264285D01*
X24213580Y-48754666D02*
X24261200Y-48802285D01*
X24261200Y-48802285D02*
X24308819Y-48945142D01*
X24308819Y-48945142D02*
X24308819Y-49040380D01*
X24308819Y-49040380D02*
X24261200Y-49183237D01*
X24261200Y-49183237D02*
X24165961Y-49278475D01*
X24165961Y-49278475D02*
X24070723Y-49326094D01*
X24070723Y-49326094D02*
X23880247Y-49373713D01*
X23880247Y-49373713D02*
X23737390Y-49373713D01*
X23737390Y-49373713D02*
X23546914Y-49326094D01*
X23546914Y-49326094D02*
X23451676Y-49278475D01*
X23451676Y-49278475D02*
X23356438Y-49183237D01*
X23356438Y-49183237D02*
X23308819Y-49040380D01*
X23308819Y-49040380D02*
X23308819Y-48945142D01*
X23308819Y-48945142D02*
X23356438Y-48802285D01*
X23356438Y-48802285D02*
X23404057Y-48754666D01*
X23404057Y-48373713D02*
X23356438Y-48326094D01*
X23356438Y-48326094D02*
X23308819Y-48230856D01*
X23308819Y-48230856D02*
X23308819Y-47992761D01*
X23308819Y-47992761D02*
X23356438Y-47897523D01*
X23356438Y-47897523D02*
X23404057Y-47849904D01*
X23404057Y-47849904D02*
X23499295Y-47802285D01*
X23499295Y-47802285D02*
X23594533Y-47802285D01*
X23594533Y-47802285D02*
X23737390Y-47849904D01*
X23737390Y-47849904D02*
X24308819Y-48421332D01*
X24308819Y-48421332D02*
X24308819Y-47802285D01*
X31854819Y-96788094D02*
X30854819Y-96788094D01*
X31854819Y-96216666D02*
X31283390Y-96645237D01*
X30854819Y-96216666D02*
X31426247Y-96788094D01*
X31854819Y-95264285D02*
X31854819Y-95835713D01*
X31854819Y-95549999D02*
X30854819Y-95549999D01*
X30854819Y-95549999D02*
X30997676Y-95645237D01*
X30997676Y-95645237D02*
X31092914Y-95740475D01*
X31092914Y-95740475D02*
X31140533Y-95835713D01*
X37615905Y-52742819D02*
X37615905Y-51742819D01*
X37615905Y-51742819D02*
X37854000Y-51742819D01*
X37854000Y-51742819D02*
X37996857Y-51790438D01*
X37996857Y-51790438D02*
X38092095Y-51885676D01*
X38092095Y-51885676D02*
X38139714Y-51980914D01*
X38139714Y-51980914D02*
X38187333Y-52171390D01*
X38187333Y-52171390D02*
X38187333Y-52314247D01*
X38187333Y-52314247D02*
X38139714Y-52504723D01*
X38139714Y-52504723D02*
X38092095Y-52599961D01*
X38092095Y-52599961D02*
X37996857Y-52695200D01*
X37996857Y-52695200D02*
X37854000Y-52742819D01*
X37854000Y-52742819D02*
X37615905Y-52742819D01*
X38568286Y-51838057D02*
X38615905Y-51790438D01*
X38615905Y-51790438D02*
X38711143Y-51742819D01*
X38711143Y-51742819D02*
X38949238Y-51742819D01*
X38949238Y-51742819D02*
X39044476Y-51790438D01*
X39044476Y-51790438D02*
X39092095Y-51838057D01*
X39092095Y-51838057D02*
X39139714Y-51933295D01*
X39139714Y-51933295D02*
X39139714Y-52028533D01*
X39139714Y-52028533D02*
X39092095Y-52171390D01*
X39092095Y-52171390D02*
X38520667Y-52742819D01*
X38520667Y-52742819D02*
X39139714Y-52742819D01*
X105992819Y-35421166D02*
X105516628Y-35754499D01*
X105992819Y-35992594D02*
X104992819Y-35992594D01*
X104992819Y-35992594D02*
X104992819Y-35611642D01*
X104992819Y-35611642D02*
X105040438Y-35516404D01*
X105040438Y-35516404D02*
X105088057Y-35468785D01*
X105088057Y-35468785D02*
X105183295Y-35421166D01*
X105183295Y-35421166D02*
X105326152Y-35421166D01*
X105326152Y-35421166D02*
X105421390Y-35468785D01*
X105421390Y-35468785D02*
X105469009Y-35516404D01*
X105469009Y-35516404D02*
X105516628Y-35611642D01*
X105516628Y-35611642D02*
X105516628Y-35992594D01*
X104992819Y-34516404D02*
X104992819Y-34992594D01*
X104992819Y-34992594D02*
X105469009Y-35040213D01*
X105469009Y-35040213D02*
X105421390Y-34992594D01*
X105421390Y-34992594D02*
X105373771Y-34897356D01*
X105373771Y-34897356D02*
X105373771Y-34659261D01*
X105373771Y-34659261D02*
X105421390Y-34564023D01*
X105421390Y-34564023D02*
X105469009Y-34516404D01*
X105469009Y-34516404D02*
X105564247Y-34468785D01*
X105564247Y-34468785D02*
X105802342Y-34468785D01*
X105802342Y-34468785D02*
X105897580Y-34516404D01*
X105897580Y-34516404D02*
X105945200Y-34564023D01*
X105945200Y-34564023D02*
X105992819Y-34659261D01*
X105992819Y-34659261D02*
X105992819Y-34897356D01*
X105992819Y-34897356D02*
X105945200Y-34992594D01*
X105945200Y-34992594D02*
X105897580Y-35040213D01*
X48712819Y-80516666D02*
X48236628Y-80849999D01*
X48712819Y-81088094D02*
X47712819Y-81088094D01*
X47712819Y-81088094D02*
X47712819Y-80707142D01*
X47712819Y-80707142D02*
X47760438Y-80611904D01*
X47760438Y-80611904D02*
X47808057Y-80564285D01*
X47808057Y-80564285D02*
X47903295Y-80516666D01*
X47903295Y-80516666D02*
X48046152Y-80516666D01*
X48046152Y-80516666D02*
X48141390Y-80564285D01*
X48141390Y-80564285D02*
X48189009Y-80611904D01*
X48189009Y-80611904D02*
X48236628Y-80707142D01*
X48236628Y-80707142D02*
X48236628Y-81088094D01*
X47712819Y-79659523D02*
X47712819Y-79849999D01*
X47712819Y-79849999D02*
X47760438Y-79945237D01*
X47760438Y-79945237D02*
X47808057Y-79992856D01*
X47808057Y-79992856D02*
X47950914Y-80088094D01*
X47950914Y-80088094D02*
X48141390Y-80135713D01*
X48141390Y-80135713D02*
X48522342Y-80135713D01*
X48522342Y-80135713D02*
X48617580Y-80088094D01*
X48617580Y-80088094D02*
X48665200Y-80040475D01*
X48665200Y-80040475D02*
X48712819Y-79945237D01*
X48712819Y-79945237D02*
X48712819Y-79754761D01*
X48712819Y-79754761D02*
X48665200Y-79659523D01*
X48665200Y-79659523D02*
X48617580Y-79611904D01*
X48617580Y-79611904D02*
X48522342Y-79564285D01*
X48522342Y-79564285D02*
X48284247Y-79564285D01*
X48284247Y-79564285D02*
X48189009Y-79611904D01*
X48189009Y-79611904D02*
X48141390Y-79659523D01*
X48141390Y-79659523D02*
X48093771Y-79754761D01*
X48093771Y-79754761D02*
X48093771Y-79945237D01*
X48093771Y-79945237D02*
X48141390Y-80040475D01*
X48141390Y-80040475D02*
X48189009Y-80088094D01*
X48189009Y-80088094D02*
X48284247Y-80135713D01*
X69154819Y-96788094D02*
X68154819Y-96788094D01*
X69154819Y-96216666D02*
X68583390Y-96645237D01*
X68154819Y-96216666D02*
X68726247Y-96788094D01*
X68154819Y-95883332D02*
X68154819Y-95264285D01*
X68154819Y-95264285D02*
X68535771Y-95597618D01*
X68535771Y-95597618D02*
X68535771Y-95454761D01*
X68535771Y-95454761D02*
X68583390Y-95359523D01*
X68583390Y-95359523D02*
X68631009Y-95311904D01*
X68631009Y-95311904D02*
X68726247Y-95264285D01*
X68726247Y-95264285D02*
X68964342Y-95264285D01*
X68964342Y-95264285D02*
X69059580Y-95311904D01*
X69059580Y-95311904D02*
X69107200Y-95359523D01*
X69107200Y-95359523D02*
X69154819Y-95454761D01*
X69154819Y-95454761D02*
X69154819Y-95740475D01*
X69154819Y-95740475D02*
X69107200Y-95835713D01*
X69107200Y-95835713D02*
X69059580Y-95883332D01*
X63150761Y-86175057D02*
X63055523Y-86127438D01*
X63055523Y-86127438D02*
X62960285Y-86032200D01*
X62960285Y-86032200D02*
X62817428Y-85889342D01*
X62817428Y-85889342D02*
X62722190Y-85841723D01*
X62722190Y-85841723D02*
X62626952Y-85841723D01*
X62674571Y-86079819D02*
X62579333Y-86032200D01*
X62579333Y-86032200D02*
X62484095Y-85936961D01*
X62484095Y-85936961D02*
X62436476Y-85746485D01*
X62436476Y-85746485D02*
X62436476Y-85413152D01*
X62436476Y-85413152D02*
X62484095Y-85222676D01*
X62484095Y-85222676D02*
X62579333Y-85127438D01*
X62579333Y-85127438D02*
X62674571Y-85079819D01*
X62674571Y-85079819D02*
X62865047Y-85079819D01*
X62865047Y-85079819D02*
X62960285Y-85127438D01*
X62960285Y-85127438D02*
X63055523Y-85222676D01*
X63055523Y-85222676D02*
X63103142Y-85413152D01*
X63103142Y-85413152D02*
X63103142Y-85746485D01*
X63103142Y-85746485D02*
X63055523Y-85936961D01*
X63055523Y-85936961D02*
X62960285Y-86032200D01*
X62960285Y-86032200D02*
X62865047Y-86079819D01*
X62865047Y-86079819D02*
X62674571Y-86079819D01*
X63484095Y-85175057D02*
X63531714Y-85127438D01*
X63531714Y-85127438D02*
X63626952Y-85079819D01*
X63626952Y-85079819D02*
X63865047Y-85079819D01*
X63865047Y-85079819D02*
X63960285Y-85127438D01*
X63960285Y-85127438D02*
X64007904Y-85175057D01*
X64007904Y-85175057D02*
X64055523Y-85270295D01*
X64055523Y-85270295D02*
X64055523Y-85365533D01*
X64055523Y-85365533D02*
X64007904Y-85508390D01*
X64007904Y-85508390D02*
X63436476Y-86079819D01*
X63436476Y-86079819D02*
X64055523Y-86079819D01*
X58807666Y-109454819D02*
X58807666Y-110169104D01*
X58807666Y-110169104D02*
X58760047Y-110311961D01*
X58760047Y-110311961D02*
X58664809Y-110407200D01*
X58664809Y-110407200D02*
X58521952Y-110454819D01*
X58521952Y-110454819D02*
X58426714Y-110454819D01*
X59712428Y-109788152D02*
X59712428Y-110454819D01*
X59474333Y-109407200D02*
X59236238Y-110121485D01*
X59236238Y-110121485D02*
X59855285Y-110121485D01*
X114238095Y-110404819D02*
X114238095Y-109404819D01*
X114238095Y-109881009D02*
X114809523Y-109881009D01*
X114809523Y-110404819D02*
X114809523Y-109404819D01*
X115190476Y-109404819D02*
X115809523Y-109404819D01*
X115809523Y-109404819D02*
X115476190Y-109785771D01*
X115476190Y-109785771D02*
X115619047Y-109785771D01*
X115619047Y-109785771D02*
X115714285Y-109833390D01*
X115714285Y-109833390D02*
X115761904Y-109881009D01*
X115761904Y-109881009D02*
X115809523Y-109976247D01*
X115809523Y-109976247D02*
X115809523Y-110214342D01*
X115809523Y-110214342D02*
X115761904Y-110309580D01*
X115761904Y-110309580D02*
X115714285Y-110357200D01*
X115714285Y-110357200D02*
X115619047Y-110404819D01*
X115619047Y-110404819D02*
X115333333Y-110404819D01*
X115333333Y-110404819D02*
X115238095Y-110357200D01*
X115238095Y-110357200D02*
X115190476Y-110309580D01*
X94593580Y-38774666D02*
X94641200Y-38822285D01*
X94641200Y-38822285D02*
X94688819Y-38965142D01*
X94688819Y-38965142D02*
X94688819Y-39060380D01*
X94688819Y-39060380D02*
X94641200Y-39203237D01*
X94641200Y-39203237D02*
X94545961Y-39298475D01*
X94545961Y-39298475D02*
X94450723Y-39346094D01*
X94450723Y-39346094D02*
X94260247Y-39393713D01*
X94260247Y-39393713D02*
X94117390Y-39393713D01*
X94117390Y-39393713D02*
X93926914Y-39346094D01*
X93926914Y-39346094D02*
X93831676Y-39298475D01*
X93831676Y-39298475D02*
X93736438Y-39203237D01*
X93736438Y-39203237D02*
X93688819Y-39060380D01*
X93688819Y-39060380D02*
X93688819Y-38965142D01*
X93688819Y-38965142D02*
X93736438Y-38822285D01*
X93736438Y-38822285D02*
X93784057Y-38774666D01*
X94117390Y-38203237D02*
X94069771Y-38298475D01*
X94069771Y-38298475D02*
X94022152Y-38346094D01*
X94022152Y-38346094D02*
X93926914Y-38393713D01*
X93926914Y-38393713D02*
X93879295Y-38393713D01*
X93879295Y-38393713D02*
X93784057Y-38346094D01*
X93784057Y-38346094D02*
X93736438Y-38298475D01*
X93736438Y-38298475D02*
X93688819Y-38203237D01*
X93688819Y-38203237D02*
X93688819Y-38012761D01*
X93688819Y-38012761D02*
X93736438Y-37917523D01*
X93736438Y-37917523D02*
X93784057Y-37869904D01*
X93784057Y-37869904D02*
X93879295Y-37822285D01*
X93879295Y-37822285D02*
X93926914Y-37822285D01*
X93926914Y-37822285D02*
X94022152Y-37869904D01*
X94022152Y-37869904D02*
X94069771Y-37917523D01*
X94069771Y-37917523D02*
X94117390Y-38012761D01*
X94117390Y-38012761D02*
X94117390Y-38203237D01*
X94117390Y-38203237D02*
X94165009Y-38298475D01*
X94165009Y-38298475D02*
X94212628Y-38346094D01*
X94212628Y-38346094D02*
X94307866Y-38393713D01*
X94307866Y-38393713D02*
X94498342Y-38393713D01*
X94498342Y-38393713D02*
X94593580Y-38346094D01*
X94593580Y-38346094D02*
X94641200Y-38298475D01*
X94641200Y-38298475D02*
X94688819Y-38203237D01*
X94688819Y-38203237D02*
X94688819Y-38012761D01*
X94688819Y-38012761D02*
X94641200Y-37917523D01*
X94641200Y-37917523D02*
X94593580Y-37869904D01*
X94593580Y-37869904D02*
X94498342Y-37822285D01*
X94498342Y-37822285D02*
X94307866Y-37822285D01*
X94307866Y-37822285D02*
X94212628Y-37869904D01*
X94212628Y-37869904D02*
X94165009Y-37917523D01*
X94165009Y-37917523D02*
X94117390Y-38012761D01*
X95877142Y-30426819D02*
X95543809Y-29950628D01*
X95305714Y-30426819D02*
X95305714Y-29426819D01*
X95305714Y-29426819D02*
X95686666Y-29426819D01*
X95686666Y-29426819D02*
X95781904Y-29474438D01*
X95781904Y-29474438D02*
X95829523Y-29522057D01*
X95829523Y-29522057D02*
X95877142Y-29617295D01*
X95877142Y-29617295D02*
X95877142Y-29760152D01*
X95877142Y-29760152D02*
X95829523Y-29855390D01*
X95829523Y-29855390D02*
X95781904Y-29903009D01*
X95781904Y-29903009D02*
X95686666Y-29950628D01*
X95686666Y-29950628D02*
X95305714Y-29950628D01*
X96829523Y-30426819D02*
X96258095Y-30426819D01*
X96543809Y-30426819D02*
X96543809Y-29426819D01*
X96543809Y-29426819D02*
X96448571Y-29569676D01*
X96448571Y-29569676D02*
X96353333Y-29664914D01*
X96353333Y-29664914D02*
X96258095Y-29712533D01*
X97448571Y-29426819D02*
X97543809Y-29426819D01*
X97543809Y-29426819D02*
X97639047Y-29474438D01*
X97639047Y-29474438D02*
X97686666Y-29522057D01*
X97686666Y-29522057D02*
X97734285Y-29617295D01*
X97734285Y-29617295D02*
X97781904Y-29807771D01*
X97781904Y-29807771D02*
X97781904Y-30045866D01*
X97781904Y-30045866D02*
X97734285Y-30236342D01*
X97734285Y-30236342D02*
X97686666Y-30331580D01*
X97686666Y-30331580D02*
X97639047Y-30379200D01*
X97639047Y-30379200D02*
X97543809Y-30426819D01*
X97543809Y-30426819D02*
X97448571Y-30426819D01*
X97448571Y-30426819D02*
X97353333Y-30379200D01*
X97353333Y-30379200D02*
X97305714Y-30331580D01*
X97305714Y-30331580D02*
X97258095Y-30236342D01*
X97258095Y-30236342D02*
X97210476Y-30045866D01*
X97210476Y-30045866D02*
X97210476Y-29807771D01*
X97210476Y-29807771D02*
X97258095Y-29617295D01*
X97258095Y-29617295D02*
X97305714Y-29522057D01*
X97305714Y-29522057D02*
X97353333Y-29474438D01*
X97353333Y-29474438D02*
X97448571Y-29426819D01*
X49544905Y-41728819D02*
X49544905Y-40728819D01*
X49544905Y-40728819D02*
X49783000Y-40728819D01*
X49783000Y-40728819D02*
X49925857Y-40776438D01*
X49925857Y-40776438D02*
X50021095Y-40871676D01*
X50021095Y-40871676D02*
X50068714Y-40966914D01*
X50068714Y-40966914D02*
X50116333Y-41157390D01*
X50116333Y-41157390D02*
X50116333Y-41300247D01*
X50116333Y-41300247D02*
X50068714Y-41490723D01*
X50068714Y-41490723D02*
X50021095Y-41585961D01*
X50021095Y-41585961D02*
X49925857Y-41681200D01*
X49925857Y-41681200D02*
X49783000Y-41728819D01*
X49783000Y-41728819D02*
X49544905Y-41728819D01*
X50592524Y-41728819D02*
X50783000Y-41728819D01*
X50783000Y-41728819D02*
X50878238Y-41681200D01*
X50878238Y-41681200D02*
X50925857Y-41633580D01*
X50925857Y-41633580D02*
X51021095Y-41490723D01*
X51021095Y-41490723D02*
X51068714Y-41300247D01*
X51068714Y-41300247D02*
X51068714Y-40919295D01*
X51068714Y-40919295D02*
X51021095Y-40824057D01*
X51021095Y-40824057D02*
X50973476Y-40776438D01*
X50973476Y-40776438D02*
X50878238Y-40728819D01*
X50878238Y-40728819D02*
X50687762Y-40728819D01*
X50687762Y-40728819D02*
X50592524Y-40776438D01*
X50592524Y-40776438D02*
X50544905Y-40824057D01*
X50544905Y-40824057D02*
X50497286Y-40919295D01*
X50497286Y-40919295D02*
X50497286Y-41157390D01*
X50497286Y-41157390D02*
X50544905Y-41252628D01*
X50544905Y-41252628D02*
X50592524Y-41300247D01*
X50592524Y-41300247D02*
X50687762Y-41347866D01*
X50687762Y-41347866D02*
X50878238Y-41347866D01*
X50878238Y-41347866D02*
X50973476Y-41300247D01*
X50973476Y-41300247D02*
X51021095Y-41252628D01*
X51021095Y-41252628D02*
X51068714Y-41157390D01*
X40463580Y-65704666D02*
X40511200Y-65752285D01*
X40511200Y-65752285D02*
X40558819Y-65895142D01*
X40558819Y-65895142D02*
X40558819Y-65990380D01*
X40558819Y-65990380D02*
X40511200Y-66133237D01*
X40511200Y-66133237D02*
X40415961Y-66228475D01*
X40415961Y-66228475D02*
X40320723Y-66276094D01*
X40320723Y-66276094D02*
X40130247Y-66323713D01*
X40130247Y-66323713D02*
X39987390Y-66323713D01*
X39987390Y-66323713D02*
X39796914Y-66276094D01*
X39796914Y-66276094D02*
X39701676Y-66228475D01*
X39701676Y-66228475D02*
X39606438Y-66133237D01*
X39606438Y-66133237D02*
X39558819Y-65990380D01*
X39558819Y-65990380D02*
X39558819Y-65895142D01*
X39558819Y-65895142D02*
X39606438Y-65752285D01*
X39606438Y-65752285D02*
X39654057Y-65704666D01*
X39892152Y-64847523D02*
X40558819Y-64847523D01*
X39511200Y-65085618D02*
X40225485Y-65323713D01*
X40225485Y-65323713D02*
X40225485Y-64704666D01*
X40603819Y-45274666D02*
X40127628Y-45607999D01*
X40603819Y-45846094D02*
X39603819Y-45846094D01*
X39603819Y-45846094D02*
X39603819Y-45465142D01*
X39603819Y-45465142D02*
X39651438Y-45369904D01*
X39651438Y-45369904D02*
X39699057Y-45322285D01*
X39699057Y-45322285D02*
X39794295Y-45274666D01*
X39794295Y-45274666D02*
X39937152Y-45274666D01*
X39937152Y-45274666D02*
X40032390Y-45322285D01*
X40032390Y-45322285D02*
X40080009Y-45369904D01*
X40080009Y-45369904D02*
X40127628Y-45465142D01*
X40127628Y-45465142D02*
X40127628Y-45846094D01*
X40603819Y-44322285D02*
X40603819Y-44893713D01*
X40603819Y-44607999D02*
X39603819Y-44607999D01*
X39603819Y-44607999D02*
X39746676Y-44703237D01*
X39746676Y-44703237D02*
X39841914Y-44798475D01*
X39841914Y-44798475D02*
X39889533Y-44893713D01*
X94099142Y-66240819D02*
X93765809Y-65764628D01*
X93527714Y-66240819D02*
X93527714Y-65240819D01*
X93527714Y-65240819D02*
X93908666Y-65240819D01*
X93908666Y-65240819D02*
X94003904Y-65288438D01*
X94003904Y-65288438D02*
X94051523Y-65336057D01*
X94051523Y-65336057D02*
X94099142Y-65431295D01*
X94099142Y-65431295D02*
X94099142Y-65574152D01*
X94099142Y-65574152D02*
X94051523Y-65669390D01*
X94051523Y-65669390D02*
X94003904Y-65717009D01*
X94003904Y-65717009D02*
X93908666Y-65764628D01*
X93908666Y-65764628D02*
X93527714Y-65764628D01*
X95051523Y-66240819D02*
X94480095Y-66240819D01*
X94765809Y-66240819D02*
X94765809Y-65240819D01*
X94765809Y-65240819D02*
X94670571Y-65383676D01*
X94670571Y-65383676D02*
X94575333Y-65478914D01*
X94575333Y-65478914D02*
X94480095Y-65526533D01*
X95908666Y-65574152D02*
X95908666Y-66240819D01*
X95670571Y-65193200D02*
X95432476Y-65907485D01*
X95432476Y-65907485D02*
X96051523Y-65907485D01*
X34861905Y-81079819D02*
X34861905Y-80079819D01*
X34861905Y-80079819D02*
X35100000Y-80079819D01*
X35100000Y-80079819D02*
X35242857Y-80127438D01*
X35242857Y-80127438D02*
X35338095Y-80222676D01*
X35338095Y-80222676D02*
X35385714Y-80317914D01*
X35385714Y-80317914D02*
X35433333Y-80508390D01*
X35433333Y-80508390D02*
X35433333Y-80651247D01*
X35433333Y-80651247D02*
X35385714Y-80841723D01*
X35385714Y-80841723D02*
X35338095Y-80936961D01*
X35338095Y-80936961D02*
X35242857Y-81032200D01*
X35242857Y-81032200D02*
X35100000Y-81079819D01*
X35100000Y-81079819D02*
X34861905Y-81079819D01*
X35766667Y-80079819D02*
X36385714Y-80079819D01*
X36385714Y-80079819D02*
X36052381Y-80460771D01*
X36052381Y-80460771D02*
X36195238Y-80460771D01*
X36195238Y-80460771D02*
X36290476Y-80508390D01*
X36290476Y-80508390D02*
X36338095Y-80556009D01*
X36338095Y-80556009D02*
X36385714Y-80651247D01*
X36385714Y-80651247D02*
X36385714Y-80889342D01*
X36385714Y-80889342D02*
X36338095Y-80984580D01*
X36338095Y-80984580D02*
X36290476Y-81032200D01*
X36290476Y-81032200D02*
X36195238Y-81079819D01*
X36195238Y-81079819D02*
X35909524Y-81079819D01*
X35909524Y-81079819D02*
X35814286Y-81032200D01*
X35814286Y-81032200D02*
X35766667Y-80984580D01*
X31228819Y-27662094D02*
X30228819Y-27662094D01*
X30228819Y-27662094D02*
X30228819Y-27423999D01*
X30228819Y-27423999D02*
X30276438Y-27281142D01*
X30276438Y-27281142D02*
X30371676Y-27185904D01*
X30371676Y-27185904D02*
X30466914Y-27138285D01*
X30466914Y-27138285D02*
X30657390Y-27090666D01*
X30657390Y-27090666D02*
X30800247Y-27090666D01*
X30800247Y-27090666D02*
X30990723Y-27138285D01*
X30990723Y-27138285D02*
X31085961Y-27185904D01*
X31085961Y-27185904D02*
X31181200Y-27281142D01*
X31181200Y-27281142D02*
X31228819Y-27423999D01*
X31228819Y-27423999D02*
X31228819Y-27662094D01*
X31228819Y-26138285D02*
X31228819Y-26709713D01*
X31228819Y-26423999D02*
X30228819Y-26423999D01*
X30228819Y-26423999D02*
X30371676Y-26519237D01*
X30371676Y-26519237D02*
X30466914Y-26614475D01*
X30466914Y-26614475D02*
X30514533Y-26709713D01*
X49958666Y-32728819D02*
X49958666Y-33443104D01*
X49958666Y-33443104D02*
X49911047Y-33585961D01*
X49911047Y-33585961D02*
X49815809Y-33681200D01*
X49815809Y-33681200D02*
X49672952Y-33728819D01*
X49672952Y-33728819D02*
X49577714Y-33728819D01*
X50911047Y-32728819D02*
X50434857Y-32728819D01*
X50434857Y-32728819D02*
X50387238Y-33205009D01*
X50387238Y-33205009D02*
X50434857Y-33157390D01*
X50434857Y-33157390D02*
X50530095Y-33109771D01*
X50530095Y-33109771D02*
X50768190Y-33109771D01*
X50768190Y-33109771D02*
X50863428Y-33157390D01*
X50863428Y-33157390D02*
X50911047Y-33205009D01*
X50911047Y-33205009D02*
X50958666Y-33300247D01*
X50958666Y-33300247D02*
X50958666Y-33538342D01*
X50958666Y-33538342D02*
X50911047Y-33633580D01*
X50911047Y-33633580D02*
X50863428Y-33681200D01*
X50863428Y-33681200D02*
X50768190Y-33728819D01*
X50768190Y-33728819D02*
X50530095Y-33728819D01*
X50530095Y-33728819D02*
X50434857Y-33681200D01*
X50434857Y-33681200D02*
X50387238Y-33633580D01*
X27043142Y-92148819D02*
X26709809Y-91672628D01*
X26471714Y-92148819D02*
X26471714Y-91148819D01*
X26471714Y-91148819D02*
X26852666Y-91148819D01*
X26852666Y-91148819D02*
X26947904Y-91196438D01*
X26947904Y-91196438D02*
X26995523Y-91244057D01*
X26995523Y-91244057D02*
X27043142Y-91339295D01*
X27043142Y-91339295D02*
X27043142Y-91482152D01*
X27043142Y-91482152D02*
X26995523Y-91577390D01*
X26995523Y-91577390D02*
X26947904Y-91625009D01*
X26947904Y-91625009D02*
X26852666Y-91672628D01*
X26852666Y-91672628D02*
X26471714Y-91672628D01*
X27995523Y-92148819D02*
X27424095Y-92148819D01*
X27709809Y-92148819D02*
X27709809Y-91148819D01*
X27709809Y-91148819D02*
X27614571Y-91291676D01*
X27614571Y-91291676D02*
X27519333Y-91386914D01*
X27519333Y-91386914D02*
X27424095Y-91434533D01*
X28376476Y-91244057D02*
X28424095Y-91196438D01*
X28424095Y-91196438D02*
X28519333Y-91148819D01*
X28519333Y-91148819D02*
X28757428Y-91148819D01*
X28757428Y-91148819D02*
X28852666Y-91196438D01*
X28852666Y-91196438D02*
X28900285Y-91244057D01*
X28900285Y-91244057D02*
X28947904Y-91339295D01*
X28947904Y-91339295D02*
X28947904Y-91434533D01*
X28947904Y-91434533D02*
X28900285Y-91577390D01*
X28900285Y-91577390D02*
X28328857Y-92148819D01*
X28328857Y-92148819D02*
X28947904Y-92148819D01*
X117188095Y-30479819D02*
X117188095Y-29479819D01*
X117188095Y-29956009D02*
X117759523Y-29956009D01*
X117759523Y-30479819D02*
X117759523Y-29479819D01*
X118188095Y-29575057D02*
X118235714Y-29527438D01*
X118235714Y-29527438D02*
X118330952Y-29479819D01*
X118330952Y-29479819D02*
X118569047Y-29479819D01*
X118569047Y-29479819D02*
X118664285Y-29527438D01*
X118664285Y-29527438D02*
X118711904Y-29575057D01*
X118711904Y-29575057D02*
X118759523Y-29670295D01*
X118759523Y-29670295D02*
X118759523Y-29765533D01*
X118759523Y-29765533D02*
X118711904Y-29908390D01*
X118711904Y-29908390D02*
X118140476Y-30479819D01*
X118140476Y-30479819D02*
X118759523Y-30479819D01*
X82200761Y-86175057D02*
X82105523Y-86127438D01*
X82105523Y-86127438D02*
X82010285Y-86032200D01*
X82010285Y-86032200D02*
X81867428Y-85889342D01*
X81867428Y-85889342D02*
X81772190Y-85841723D01*
X81772190Y-85841723D02*
X81676952Y-85841723D01*
X81724571Y-86079819D02*
X81629333Y-86032200D01*
X81629333Y-86032200D02*
X81534095Y-85936961D01*
X81534095Y-85936961D02*
X81486476Y-85746485D01*
X81486476Y-85746485D02*
X81486476Y-85413152D01*
X81486476Y-85413152D02*
X81534095Y-85222676D01*
X81534095Y-85222676D02*
X81629333Y-85127438D01*
X81629333Y-85127438D02*
X81724571Y-85079819D01*
X81724571Y-85079819D02*
X81915047Y-85079819D01*
X81915047Y-85079819D02*
X82010285Y-85127438D01*
X82010285Y-85127438D02*
X82105523Y-85222676D01*
X82105523Y-85222676D02*
X82153142Y-85413152D01*
X82153142Y-85413152D02*
X82153142Y-85746485D01*
X82153142Y-85746485D02*
X82105523Y-85936961D01*
X82105523Y-85936961D02*
X82010285Y-86032200D01*
X82010285Y-86032200D02*
X81915047Y-86079819D01*
X81915047Y-86079819D02*
X81724571Y-86079819D01*
X82486476Y-85079819D02*
X83105523Y-85079819D01*
X83105523Y-85079819D02*
X82772190Y-85460771D01*
X82772190Y-85460771D02*
X82915047Y-85460771D01*
X82915047Y-85460771D02*
X83010285Y-85508390D01*
X83010285Y-85508390D02*
X83057904Y-85556009D01*
X83057904Y-85556009D02*
X83105523Y-85651247D01*
X83105523Y-85651247D02*
X83105523Y-85889342D01*
X83105523Y-85889342D02*
X83057904Y-85984580D01*
X83057904Y-85984580D02*
X83010285Y-86032200D01*
X83010285Y-86032200D02*
X82915047Y-86079819D01*
X82915047Y-86079819D02*
X82629333Y-86079819D01*
X82629333Y-86079819D02*
X82534095Y-86032200D01*
X82534095Y-86032200D02*
X82486476Y-85984580D01*
X83491666Y-32277819D02*
X83491666Y-32992104D01*
X83491666Y-32992104D02*
X83444047Y-33134961D01*
X83444047Y-33134961D02*
X83348809Y-33230200D01*
X83348809Y-33230200D02*
X83205952Y-33277819D01*
X83205952Y-33277819D02*
X83110714Y-33277819D01*
X84015476Y-33277819D02*
X84205952Y-33277819D01*
X84205952Y-33277819D02*
X84301190Y-33230200D01*
X84301190Y-33230200D02*
X84348809Y-33182580D01*
X84348809Y-33182580D02*
X84444047Y-33039723D01*
X84444047Y-33039723D02*
X84491666Y-32849247D01*
X84491666Y-32849247D02*
X84491666Y-32468295D01*
X84491666Y-32468295D02*
X84444047Y-32373057D01*
X84444047Y-32373057D02*
X84396428Y-32325438D01*
X84396428Y-32325438D02*
X84301190Y-32277819D01*
X84301190Y-32277819D02*
X84110714Y-32277819D01*
X84110714Y-32277819D02*
X84015476Y-32325438D01*
X84015476Y-32325438D02*
X83967857Y-32373057D01*
X83967857Y-32373057D02*
X83920238Y-32468295D01*
X83920238Y-32468295D02*
X83920238Y-32706390D01*
X83920238Y-32706390D02*
X83967857Y-32801628D01*
X83967857Y-32801628D02*
X84015476Y-32849247D01*
X84015476Y-32849247D02*
X84110714Y-32896866D01*
X84110714Y-32896866D02*
X84301190Y-32896866D01*
X84301190Y-32896866D02*
X84396428Y-32849247D01*
X84396428Y-32849247D02*
X84444047Y-32801628D01*
X84444047Y-32801628D02*
X84491666Y-32706390D01*
X54286714Y-41728819D02*
X54286714Y-40728819D01*
X54286714Y-40728819D02*
X54524809Y-40728819D01*
X54524809Y-40728819D02*
X54667666Y-40776438D01*
X54667666Y-40776438D02*
X54762904Y-40871676D01*
X54762904Y-40871676D02*
X54810523Y-40966914D01*
X54810523Y-40966914D02*
X54858142Y-41157390D01*
X54858142Y-41157390D02*
X54858142Y-41300247D01*
X54858142Y-41300247D02*
X54810523Y-41490723D01*
X54810523Y-41490723D02*
X54762904Y-41585961D01*
X54762904Y-41585961D02*
X54667666Y-41681200D01*
X54667666Y-41681200D02*
X54524809Y-41728819D01*
X54524809Y-41728819D02*
X54286714Y-41728819D01*
X55810523Y-41728819D02*
X55239095Y-41728819D01*
X55524809Y-41728819D02*
X55524809Y-40728819D01*
X55524809Y-40728819D02*
X55429571Y-40871676D01*
X55429571Y-40871676D02*
X55334333Y-40966914D01*
X55334333Y-40966914D02*
X55239095Y-41014533D01*
X56429571Y-40728819D02*
X56524809Y-40728819D01*
X56524809Y-40728819D02*
X56620047Y-40776438D01*
X56620047Y-40776438D02*
X56667666Y-40824057D01*
X56667666Y-40824057D02*
X56715285Y-40919295D01*
X56715285Y-40919295D02*
X56762904Y-41109771D01*
X56762904Y-41109771D02*
X56762904Y-41347866D01*
X56762904Y-41347866D02*
X56715285Y-41538342D01*
X56715285Y-41538342D02*
X56667666Y-41633580D01*
X56667666Y-41633580D02*
X56620047Y-41681200D01*
X56620047Y-41681200D02*
X56524809Y-41728819D01*
X56524809Y-41728819D02*
X56429571Y-41728819D01*
X56429571Y-41728819D02*
X56334333Y-41681200D01*
X56334333Y-41681200D02*
X56286714Y-41633580D01*
X56286714Y-41633580D02*
X56239095Y-41538342D01*
X56239095Y-41538342D02*
X56191476Y-41347866D01*
X56191476Y-41347866D02*
X56191476Y-41109771D01*
X56191476Y-41109771D02*
X56239095Y-40919295D01*
X56239095Y-40919295D02*
X56286714Y-40824057D01*
X56286714Y-40824057D02*
X56334333Y-40776438D01*
X56334333Y-40776438D02*
X56429571Y-40728819D01*
X54887905Y-81079819D02*
X54887905Y-80079819D01*
X54887905Y-80079819D02*
X55126000Y-80079819D01*
X55126000Y-80079819D02*
X55268857Y-80127438D01*
X55268857Y-80127438D02*
X55364095Y-80222676D01*
X55364095Y-80222676D02*
X55411714Y-80317914D01*
X55411714Y-80317914D02*
X55459333Y-80508390D01*
X55459333Y-80508390D02*
X55459333Y-80651247D01*
X55459333Y-80651247D02*
X55411714Y-80841723D01*
X55411714Y-80841723D02*
X55364095Y-80936961D01*
X55364095Y-80936961D02*
X55268857Y-81032200D01*
X55268857Y-81032200D02*
X55126000Y-81079819D01*
X55126000Y-81079819D02*
X54887905Y-81079819D01*
X56316476Y-80413152D02*
X56316476Y-81079819D01*
X56078381Y-80032200D02*
X55840286Y-80746485D01*
X55840286Y-80746485D02*
X56459333Y-80746485D01*
X40678819Y-49549666D02*
X40202628Y-49882999D01*
X40678819Y-50121094D02*
X39678819Y-50121094D01*
X39678819Y-50121094D02*
X39678819Y-49740142D01*
X39678819Y-49740142D02*
X39726438Y-49644904D01*
X39726438Y-49644904D02*
X39774057Y-49597285D01*
X39774057Y-49597285D02*
X39869295Y-49549666D01*
X39869295Y-49549666D02*
X40012152Y-49549666D01*
X40012152Y-49549666D02*
X40107390Y-49597285D01*
X40107390Y-49597285D02*
X40155009Y-49644904D01*
X40155009Y-49644904D02*
X40202628Y-49740142D01*
X40202628Y-49740142D02*
X40202628Y-50121094D01*
X39774057Y-49168713D02*
X39726438Y-49121094D01*
X39726438Y-49121094D02*
X39678819Y-49025856D01*
X39678819Y-49025856D02*
X39678819Y-48787761D01*
X39678819Y-48787761D02*
X39726438Y-48692523D01*
X39726438Y-48692523D02*
X39774057Y-48644904D01*
X39774057Y-48644904D02*
X39869295Y-48597285D01*
X39869295Y-48597285D02*
X39964533Y-48597285D01*
X39964533Y-48597285D02*
X40107390Y-48644904D01*
X40107390Y-48644904D02*
X40678819Y-49216332D01*
X40678819Y-49216332D02*
X40678819Y-48597285D01*
X30313580Y-57254666D02*
X30361200Y-57302285D01*
X30361200Y-57302285D02*
X30408819Y-57445142D01*
X30408819Y-57445142D02*
X30408819Y-57540380D01*
X30408819Y-57540380D02*
X30361200Y-57683237D01*
X30361200Y-57683237D02*
X30265961Y-57778475D01*
X30265961Y-57778475D02*
X30170723Y-57826094D01*
X30170723Y-57826094D02*
X29980247Y-57873713D01*
X29980247Y-57873713D02*
X29837390Y-57873713D01*
X29837390Y-57873713D02*
X29646914Y-57826094D01*
X29646914Y-57826094D02*
X29551676Y-57778475D01*
X29551676Y-57778475D02*
X29456438Y-57683237D01*
X29456438Y-57683237D02*
X29408819Y-57540380D01*
X29408819Y-57540380D02*
X29408819Y-57445142D01*
X29408819Y-57445142D02*
X29456438Y-57302285D01*
X29456438Y-57302285D02*
X29504057Y-57254666D01*
X29408819Y-56921332D02*
X29408819Y-56302285D01*
X29408819Y-56302285D02*
X29789771Y-56635618D01*
X29789771Y-56635618D02*
X29789771Y-56492761D01*
X29789771Y-56492761D02*
X29837390Y-56397523D01*
X29837390Y-56397523D02*
X29885009Y-56349904D01*
X29885009Y-56349904D02*
X29980247Y-56302285D01*
X29980247Y-56302285D02*
X30218342Y-56302285D01*
X30218342Y-56302285D02*
X30313580Y-56349904D01*
X30313580Y-56349904D02*
X30361200Y-56397523D01*
X30361200Y-56397523D02*
X30408819Y-56492761D01*
X30408819Y-56492761D02*
X30408819Y-56778475D01*
X30408819Y-56778475D02*
X30361200Y-56873713D01*
X30361200Y-56873713D02*
X30313580Y-56921332D01*
X20863095Y-30429819D02*
X20863095Y-29429819D01*
X20863095Y-29906009D02*
X21434523Y-29906009D01*
X21434523Y-30429819D02*
X21434523Y-29429819D01*
X22434523Y-30429819D02*
X21863095Y-30429819D01*
X22148809Y-30429819D02*
X22148809Y-29429819D01*
X22148809Y-29429819D02*
X22053571Y-29572676D01*
X22053571Y-29572676D02*
X21958333Y-29667914D01*
X21958333Y-29667914D02*
X21863095Y-29715533D01*
X67828095Y-40807819D02*
X67828095Y-41617342D01*
X67828095Y-41617342D02*
X67875714Y-41712580D01*
X67875714Y-41712580D02*
X67923333Y-41760200D01*
X67923333Y-41760200D02*
X68018571Y-41807819D01*
X68018571Y-41807819D02*
X68209047Y-41807819D01*
X68209047Y-41807819D02*
X68304285Y-41760200D01*
X68304285Y-41760200D02*
X68351904Y-41712580D01*
X68351904Y-41712580D02*
X68399523Y-41617342D01*
X68399523Y-41617342D02*
X68399523Y-40807819D01*
X69304285Y-41141152D02*
X69304285Y-41807819D01*
X69066190Y-40760200D02*
X68828095Y-41474485D01*
X68828095Y-41474485D02*
X69447142Y-41474485D01*
X77815666Y-109454819D02*
X77815666Y-110169104D01*
X77815666Y-110169104D02*
X77768047Y-110311961D01*
X77768047Y-110311961D02*
X77672809Y-110407200D01*
X77672809Y-110407200D02*
X77529952Y-110454819D01*
X77529952Y-110454819D02*
X77434714Y-110454819D01*
X78196619Y-109454819D02*
X78863285Y-109454819D01*
X78863285Y-109454819D02*
X78434714Y-110454819D01*
X40687333Y-71167580D02*
X40639714Y-71215200D01*
X40639714Y-71215200D02*
X40496857Y-71262819D01*
X40496857Y-71262819D02*
X40401619Y-71262819D01*
X40401619Y-71262819D02*
X40258762Y-71215200D01*
X40258762Y-71215200D02*
X40163524Y-71119961D01*
X40163524Y-71119961D02*
X40115905Y-71024723D01*
X40115905Y-71024723D02*
X40068286Y-70834247D01*
X40068286Y-70834247D02*
X40068286Y-70691390D01*
X40068286Y-70691390D02*
X40115905Y-70500914D01*
X40115905Y-70500914D02*
X40163524Y-70405676D01*
X40163524Y-70405676D02*
X40258762Y-70310438D01*
X40258762Y-70310438D02*
X40401619Y-70262819D01*
X40401619Y-70262819D02*
X40496857Y-70262819D01*
X40496857Y-70262819D02*
X40639714Y-70310438D01*
X40639714Y-70310438D02*
X40687333Y-70358057D01*
X41544476Y-70262819D02*
X41354000Y-70262819D01*
X41354000Y-70262819D02*
X41258762Y-70310438D01*
X41258762Y-70310438D02*
X41211143Y-70358057D01*
X41211143Y-70358057D02*
X41115905Y-70500914D01*
X41115905Y-70500914D02*
X41068286Y-70691390D01*
X41068286Y-70691390D02*
X41068286Y-71072342D01*
X41068286Y-71072342D02*
X41115905Y-71167580D01*
X41115905Y-71167580D02*
X41163524Y-71215200D01*
X41163524Y-71215200D02*
X41258762Y-71262819D01*
X41258762Y-71262819D02*
X41449238Y-71262819D01*
X41449238Y-71262819D02*
X41544476Y-71215200D01*
X41544476Y-71215200D02*
X41592095Y-71167580D01*
X41592095Y-71167580D02*
X41639714Y-71072342D01*
X41639714Y-71072342D02*
X41639714Y-70834247D01*
X41639714Y-70834247D02*
X41592095Y-70739009D01*
X41592095Y-70739009D02*
X41544476Y-70691390D01*
X41544476Y-70691390D02*
X41449238Y-70643771D01*
X41449238Y-70643771D02*
X41258762Y-70643771D01*
X41258762Y-70643771D02*
X41163524Y-70691390D01*
X41163524Y-70691390D02*
X41115905Y-70739009D01*
X41115905Y-70739009D02*
X41068286Y-70834247D01*
X45242095Y-74892819D02*
X45813523Y-74892819D01*
X45527809Y-75892819D02*
X45527809Y-74892819D01*
X46146857Y-75892819D02*
X46146857Y-74892819D01*
X46146857Y-74892819D02*
X46527809Y-74892819D01*
X46527809Y-74892819D02*
X46623047Y-74940438D01*
X46623047Y-74940438D02*
X46670666Y-74988057D01*
X46670666Y-74988057D02*
X46718285Y-75083295D01*
X46718285Y-75083295D02*
X46718285Y-75226152D01*
X46718285Y-75226152D02*
X46670666Y-75321390D01*
X46670666Y-75321390D02*
X46623047Y-75369009D01*
X46623047Y-75369009D02*
X46527809Y-75416628D01*
X46527809Y-75416628D02*
X46146857Y-75416628D01*
X47670666Y-75892819D02*
X47099238Y-75892819D01*
X47384952Y-75892819D02*
X47384952Y-74892819D01*
X47384952Y-74892819D02*
X47289714Y-75035676D01*
X47289714Y-75035676D02*
X47194476Y-75130914D01*
X47194476Y-75130914D02*
X47099238Y-75178533D01*
X66368819Y-83391666D02*
X65892628Y-83724999D01*
X66368819Y-83963094D02*
X65368819Y-83963094D01*
X65368819Y-83963094D02*
X65368819Y-83582142D01*
X65368819Y-83582142D02*
X65416438Y-83486904D01*
X65416438Y-83486904D02*
X65464057Y-83439285D01*
X65464057Y-83439285D02*
X65559295Y-83391666D01*
X65559295Y-83391666D02*
X65702152Y-83391666D01*
X65702152Y-83391666D02*
X65797390Y-83439285D01*
X65797390Y-83439285D02*
X65845009Y-83486904D01*
X65845009Y-83486904D02*
X65892628Y-83582142D01*
X65892628Y-83582142D02*
X65892628Y-83963094D01*
X65368819Y-83058332D02*
X65368819Y-82391666D01*
X65368819Y-82391666D02*
X66368819Y-82820237D01*
X92511714Y-81079819D02*
X92511714Y-80079819D01*
X92511714Y-80079819D02*
X92749809Y-80079819D01*
X92749809Y-80079819D02*
X92892666Y-80127438D01*
X92892666Y-80127438D02*
X92987904Y-80222676D01*
X92987904Y-80222676D02*
X93035523Y-80317914D01*
X93035523Y-80317914D02*
X93083142Y-80508390D01*
X93083142Y-80508390D02*
X93083142Y-80651247D01*
X93083142Y-80651247D02*
X93035523Y-80841723D01*
X93035523Y-80841723D02*
X92987904Y-80936961D01*
X92987904Y-80936961D02*
X92892666Y-81032200D01*
X92892666Y-81032200D02*
X92749809Y-81079819D01*
X92749809Y-81079819D02*
X92511714Y-81079819D01*
X94035523Y-81079819D02*
X93464095Y-81079819D01*
X93749809Y-81079819D02*
X93749809Y-80079819D01*
X93749809Y-80079819D02*
X93654571Y-80222676D01*
X93654571Y-80222676D02*
X93559333Y-80317914D01*
X93559333Y-80317914D02*
X93464095Y-80365533D01*
X94892666Y-80413152D02*
X94892666Y-81079819D01*
X94654571Y-80032200D02*
X94416476Y-80746485D01*
X94416476Y-80746485D02*
X95035523Y-80746485D01*
X30992095Y-78742819D02*
X30992095Y-79552342D01*
X30992095Y-79552342D02*
X31039714Y-79647580D01*
X31039714Y-79647580D02*
X31087333Y-79695200D01*
X31087333Y-79695200D02*
X31182571Y-79742819D01*
X31182571Y-79742819D02*
X31373047Y-79742819D01*
X31373047Y-79742819D02*
X31468285Y-79695200D01*
X31468285Y-79695200D02*
X31515904Y-79647580D01*
X31515904Y-79647580D02*
X31563523Y-79552342D01*
X31563523Y-79552342D02*
X31563523Y-78742819D01*
X31992095Y-78838057D02*
X32039714Y-78790438D01*
X32039714Y-78790438D02*
X32134952Y-78742819D01*
X32134952Y-78742819D02*
X32373047Y-78742819D01*
X32373047Y-78742819D02*
X32468285Y-78790438D01*
X32468285Y-78790438D02*
X32515904Y-78838057D01*
X32515904Y-78838057D02*
X32563523Y-78933295D01*
X32563523Y-78933295D02*
X32563523Y-79028533D01*
X32563523Y-79028533D02*
X32515904Y-79171390D01*
X32515904Y-79171390D02*
X31944476Y-79742819D01*
X31944476Y-79742819D02*
X32563523Y-79742819D01*
X112339819Y-43287904D02*
X113149342Y-43287904D01*
X113149342Y-43287904D02*
X113244580Y-43240285D01*
X113244580Y-43240285D02*
X113292200Y-43192666D01*
X113292200Y-43192666D02*
X113339819Y-43097428D01*
X113339819Y-43097428D02*
X113339819Y-42906952D01*
X113339819Y-42906952D02*
X113292200Y-42811714D01*
X113292200Y-42811714D02*
X113244580Y-42764095D01*
X113244580Y-42764095D02*
X113149342Y-42716476D01*
X113149342Y-42716476D02*
X112339819Y-42716476D01*
X112339819Y-42335523D02*
X112339819Y-41716476D01*
X112339819Y-41716476D02*
X112720771Y-42049809D01*
X112720771Y-42049809D02*
X112720771Y-41906952D01*
X112720771Y-41906952D02*
X112768390Y-41811714D01*
X112768390Y-41811714D02*
X112816009Y-41764095D01*
X112816009Y-41764095D02*
X112911247Y-41716476D01*
X112911247Y-41716476D02*
X113149342Y-41716476D01*
X113149342Y-41716476D02*
X113244580Y-41764095D01*
X113244580Y-41764095D02*
X113292200Y-41811714D01*
X113292200Y-41811714D02*
X113339819Y-41906952D01*
X113339819Y-41906952D02*
X113339819Y-42192666D01*
X113339819Y-42192666D02*
X113292200Y-42287904D01*
X113292200Y-42287904D02*
X113244580Y-42335523D01*
X50071333Y-35126819D02*
X49738000Y-34650628D01*
X49499905Y-35126819D02*
X49499905Y-34126819D01*
X49499905Y-34126819D02*
X49880857Y-34126819D01*
X49880857Y-34126819D02*
X49976095Y-34174438D01*
X49976095Y-34174438D02*
X50023714Y-34222057D01*
X50023714Y-34222057D02*
X50071333Y-34317295D01*
X50071333Y-34317295D02*
X50071333Y-34460152D01*
X50071333Y-34460152D02*
X50023714Y-34555390D01*
X50023714Y-34555390D02*
X49976095Y-34603009D01*
X49976095Y-34603009D02*
X49880857Y-34650628D01*
X49880857Y-34650628D02*
X49499905Y-34650628D01*
X50547524Y-35126819D02*
X50738000Y-35126819D01*
X50738000Y-35126819D02*
X50833238Y-35079200D01*
X50833238Y-35079200D02*
X50880857Y-35031580D01*
X50880857Y-35031580D02*
X50976095Y-34888723D01*
X50976095Y-34888723D02*
X51023714Y-34698247D01*
X51023714Y-34698247D02*
X51023714Y-34317295D01*
X51023714Y-34317295D02*
X50976095Y-34222057D01*
X50976095Y-34222057D02*
X50928476Y-34174438D01*
X50928476Y-34174438D02*
X50833238Y-34126819D01*
X50833238Y-34126819D02*
X50642762Y-34126819D01*
X50642762Y-34126819D02*
X50547524Y-34174438D01*
X50547524Y-34174438D02*
X50499905Y-34222057D01*
X50499905Y-34222057D02*
X50452286Y-34317295D01*
X50452286Y-34317295D02*
X50452286Y-34555390D01*
X50452286Y-34555390D02*
X50499905Y-34650628D01*
X50499905Y-34650628D02*
X50547524Y-34698247D01*
X50547524Y-34698247D02*
X50642762Y-34745866D01*
X50642762Y-34745866D02*
X50833238Y-34745866D01*
X50833238Y-34745866D02*
X50928476Y-34698247D01*
X50928476Y-34698247D02*
X50976095Y-34650628D01*
X50976095Y-34650628D02*
X51023714Y-34555390D01*
X102280819Y-78565333D02*
X102995104Y-78565333D01*
X102995104Y-78565333D02*
X103137961Y-78612952D01*
X103137961Y-78612952D02*
X103233200Y-78708190D01*
X103233200Y-78708190D02*
X103280819Y-78851047D01*
X103280819Y-78851047D02*
X103280819Y-78946285D01*
X102376057Y-78136761D02*
X102328438Y-78089142D01*
X102328438Y-78089142D02*
X102280819Y-77993904D01*
X102280819Y-77993904D02*
X102280819Y-77755809D01*
X102280819Y-77755809D02*
X102328438Y-77660571D01*
X102328438Y-77660571D02*
X102376057Y-77612952D01*
X102376057Y-77612952D02*
X102471295Y-77565333D01*
X102471295Y-77565333D02*
X102566533Y-77565333D01*
X102566533Y-77565333D02*
X102709390Y-77612952D01*
X102709390Y-77612952D02*
X103280819Y-78184380D01*
X103280819Y-78184380D02*
X103280819Y-77565333D01*
X43637761Y-81250057D02*
X43542523Y-81202438D01*
X43542523Y-81202438D02*
X43447285Y-81107200D01*
X43447285Y-81107200D02*
X43304428Y-80964342D01*
X43304428Y-80964342D02*
X43209190Y-80916723D01*
X43209190Y-80916723D02*
X43113952Y-80916723D01*
X43161571Y-81154819D02*
X43066333Y-81107200D01*
X43066333Y-81107200D02*
X42971095Y-81011961D01*
X42971095Y-81011961D02*
X42923476Y-80821485D01*
X42923476Y-80821485D02*
X42923476Y-80488152D01*
X42923476Y-80488152D02*
X42971095Y-80297676D01*
X42971095Y-80297676D02*
X43066333Y-80202438D01*
X43066333Y-80202438D02*
X43161571Y-80154819D01*
X43161571Y-80154819D02*
X43352047Y-80154819D01*
X43352047Y-80154819D02*
X43447285Y-80202438D01*
X43447285Y-80202438D02*
X43542523Y-80297676D01*
X43542523Y-80297676D02*
X43590142Y-80488152D01*
X43590142Y-80488152D02*
X43590142Y-80821485D01*
X43590142Y-80821485D02*
X43542523Y-81011961D01*
X43542523Y-81011961D02*
X43447285Y-81107200D01*
X43447285Y-81107200D02*
X43352047Y-81154819D01*
X43352047Y-81154819D02*
X43161571Y-81154819D01*
X44542523Y-81154819D02*
X43971095Y-81154819D01*
X44256809Y-81154819D02*
X44256809Y-80154819D01*
X44256809Y-80154819D02*
X44161571Y-80297676D01*
X44161571Y-80297676D02*
X44066333Y-80392914D01*
X44066333Y-80392914D02*
X43971095Y-80440533D01*
X112149142Y-92030819D02*
X111815809Y-91554628D01*
X111577714Y-92030819D02*
X111577714Y-91030819D01*
X111577714Y-91030819D02*
X111958666Y-91030819D01*
X111958666Y-91030819D02*
X112053904Y-91078438D01*
X112053904Y-91078438D02*
X112101523Y-91126057D01*
X112101523Y-91126057D02*
X112149142Y-91221295D01*
X112149142Y-91221295D02*
X112149142Y-91364152D01*
X112149142Y-91364152D02*
X112101523Y-91459390D01*
X112101523Y-91459390D02*
X112053904Y-91507009D01*
X112053904Y-91507009D02*
X111958666Y-91554628D01*
X111958666Y-91554628D02*
X111577714Y-91554628D01*
X113101523Y-92030819D02*
X112530095Y-92030819D01*
X112815809Y-92030819D02*
X112815809Y-91030819D01*
X112815809Y-91030819D02*
X112720571Y-91173676D01*
X112720571Y-91173676D02*
X112625333Y-91268914D01*
X112625333Y-91268914D02*
X112530095Y-91316533D01*
X113958666Y-91030819D02*
X113768190Y-91030819D01*
X113768190Y-91030819D02*
X113672952Y-91078438D01*
X113672952Y-91078438D02*
X113625333Y-91126057D01*
X113625333Y-91126057D02*
X113530095Y-91268914D01*
X113530095Y-91268914D02*
X113482476Y-91459390D01*
X113482476Y-91459390D02*
X113482476Y-91840342D01*
X113482476Y-91840342D02*
X113530095Y-91935580D01*
X113530095Y-91935580D02*
X113577714Y-91983200D01*
X113577714Y-91983200D02*
X113672952Y-92030819D01*
X113672952Y-92030819D02*
X113863428Y-92030819D01*
X113863428Y-92030819D02*
X113958666Y-91983200D01*
X113958666Y-91983200D02*
X114006285Y-91935580D01*
X114006285Y-91935580D02*
X114053904Y-91840342D01*
X114053904Y-91840342D02*
X114053904Y-91602247D01*
X114053904Y-91602247D02*
X114006285Y-91507009D01*
X114006285Y-91507009D02*
X113958666Y-91459390D01*
X113958666Y-91459390D02*
X113863428Y-91411771D01*
X113863428Y-91411771D02*
X113672952Y-91411771D01*
X113672952Y-91411771D02*
X113577714Y-91459390D01*
X113577714Y-91459390D02*
X113530095Y-91507009D01*
X113530095Y-91507009D02*
X113482476Y-91602247D01*
X105484819Y-83867857D02*
X105008628Y-84201190D01*
X105484819Y-84439285D02*
X104484819Y-84439285D01*
X104484819Y-84439285D02*
X104484819Y-84058333D01*
X104484819Y-84058333D02*
X104532438Y-83963095D01*
X104532438Y-83963095D02*
X104580057Y-83915476D01*
X104580057Y-83915476D02*
X104675295Y-83867857D01*
X104675295Y-83867857D02*
X104818152Y-83867857D01*
X104818152Y-83867857D02*
X104913390Y-83915476D01*
X104913390Y-83915476D02*
X104961009Y-83963095D01*
X104961009Y-83963095D02*
X105008628Y-84058333D01*
X105008628Y-84058333D02*
X105008628Y-84439285D01*
X105484819Y-82915476D02*
X105484819Y-83486904D01*
X105484819Y-83201190D02*
X104484819Y-83201190D01*
X104484819Y-83201190D02*
X104627676Y-83296428D01*
X104627676Y-83296428D02*
X104722914Y-83391666D01*
X104722914Y-83391666D02*
X104770533Y-83486904D01*
X105484819Y-82439285D02*
X105484819Y-82248809D01*
X105484819Y-82248809D02*
X105437200Y-82153571D01*
X105437200Y-82153571D02*
X105389580Y-82105952D01*
X105389580Y-82105952D02*
X105246723Y-82010714D01*
X105246723Y-82010714D02*
X105056247Y-81963095D01*
X105056247Y-81963095D02*
X104675295Y-81963095D01*
X104675295Y-81963095D02*
X104580057Y-82010714D01*
X104580057Y-82010714D02*
X104532438Y-82058333D01*
X104532438Y-82058333D02*
X104484819Y-82153571D01*
X104484819Y-82153571D02*
X104484819Y-82344047D01*
X104484819Y-82344047D02*
X104532438Y-82439285D01*
X104532438Y-82439285D02*
X104580057Y-82486904D01*
X104580057Y-82486904D02*
X104675295Y-82534523D01*
X104675295Y-82534523D02*
X104913390Y-82534523D01*
X104913390Y-82534523D02*
X105008628Y-82486904D01*
X105008628Y-82486904D02*
X105056247Y-82439285D01*
X105056247Y-82439285D02*
X105103866Y-82344047D01*
X105103866Y-82344047D02*
X105103866Y-82153571D01*
X105103866Y-82153571D02*
X105056247Y-82058333D01*
X105056247Y-82058333D02*
X105008628Y-82010714D01*
X105008628Y-82010714D02*
X104913390Y-81963095D01*
X49742095Y-74892819D02*
X50313523Y-74892819D01*
X50027809Y-75892819D02*
X50027809Y-74892819D01*
X50646857Y-75892819D02*
X50646857Y-74892819D01*
X50646857Y-74892819D02*
X51027809Y-74892819D01*
X51027809Y-74892819D02*
X51123047Y-74940438D01*
X51123047Y-74940438D02*
X51170666Y-74988057D01*
X51170666Y-74988057D02*
X51218285Y-75083295D01*
X51218285Y-75083295D02*
X51218285Y-75226152D01*
X51218285Y-75226152D02*
X51170666Y-75321390D01*
X51170666Y-75321390D02*
X51123047Y-75369009D01*
X51123047Y-75369009D02*
X51027809Y-75416628D01*
X51027809Y-75416628D02*
X50646857Y-75416628D01*
X51599238Y-74988057D02*
X51646857Y-74940438D01*
X51646857Y-74940438D02*
X51742095Y-74892819D01*
X51742095Y-74892819D02*
X51980190Y-74892819D01*
X51980190Y-74892819D02*
X52075428Y-74940438D01*
X52075428Y-74940438D02*
X52123047Y-74988057D01*
X52123047Y-74988057D02*
X52170666Y-75083295D01*
X52170666Y-75083295D02*
X52170666Y-75178533D01*
X52170666Y-75178533D02*
X52123047Y-75321390D01*
X52123047Y-75321390D02*
X51551619Y-75892819D01*
X51551619Y-75892819D02*
X52170666Y-75892819D01*
X54813142Y-35126819D02*
X54479809Y-34650628D01*
X54241714Y-35126819D02*
X54241714Y-34126819D01*
X54241714Y-34126819D02*
X54622666Y-34126819D01*
X54622666Y-34126819D02*
X54717904Y-34174438D01*
X54717904Y-34174438D02*
X54765523Y-34222057D01*
X54765523Y-34222057D02*
X54813142Y-34317295D01*
X54813142Y-34317295D02*
X54813142Y-34460152D01*
X54813142Y-34460152D02*
X54765523Y-34555390D01*
X54765523Y-34555390D02*
X54717904Y-34603009D01*
X54717904Y-34603009D02*
X54622666Y-34650628D01*
X54622666Y-34650628D02*
X54241714Y-34650628D01*
X55765523Y-35126819D02*
X55194095Y-35126819D01*
X55479809Y-35126819D02*
X55479809Y-34126819D01*
X55479809Y-34126819D02*
X55384571Y-34269676D01*
X55384571Y-34269676D02*
X55289333Y-34364914D01*
X55289333Y-34364914D02*
X55194095Y-34412533D01*
X56717904Y-35126819D02*
X56146476Y-35126819D01*
X56432190Y-35126819D02*
X56432190Y-34126819D01*
X56432190Y-34126819D02*
X56336952Y-34269676D01*
X56336952Y-34269676D02*
X56241714Y-34364914D01*
X56241714Y-34364914D02*
X56146476Y-34412533D01*
X21867905Y-92148819D02*
X21867905Y-91148819D01*
X21867905Y-91148819D02*
X22106000Y-91148819D01*
X22106000Y-91148819D02*
X22248857Y-91196438D01*
X22248857Y-91196438D02*
X22344095Y-91291676D01*
X22344095Y-91291676D02*
X22391714Y-91386914D01*
X22391714Y-91386914D02*
X22439333Y-91577390D01*
X22439333Y-91577390D02*
X22439333Y-91720247D01*
X22439333Y-91720247D02*
X22391714Y-91910723D01*
X22391714Y-91910723D02*
X22344095Y-92005961D01*
X22344095Y-92005961D02*
X22248857Y-92101200D01*
X22248857Y-92101200D02*
X22106000Y-92148819D01*
X22106000Y-92148819D02*
X21867905Y-92148819D01*
X22772667Y-91148819D02*
X23439333Y-91148819D01*
X23439333Y-91148819D02*
X23010762Y-92148819D01*
X21986905Y-95704819D02*
X21986905Y-94704819D01*
X21986905Y-94704819D02*
X22225000Y-94704819D01*
X22225000Y-94704819D02*
X22367857Y-94752438D01*
X22367857Y-94752438D02*
X22463095Y-94847676D01*
X22463095Y-94847676D02*
X22510714Y-94942914D01*
X22510714Y-94942914D02*
X22558333Y-95133390D01*
X22558333Y-95133390D02*
X22558333Y-95276247D01*
X22558333Y-95276247D02*
X22510714Y-95466723D01*
X22510714Y-95466723D02*
X22463095Y-95561961D01*
X22463095Y-95561961D02*
X22367857Y-95657200D01*
X22367857Y-95657200D02*
X22225000Y-95704819D01*
X22225000Y-95704819D02*
X21986905Y-95704819D01*
X23129762Y-95133390D02*
X23034524Y-95085771D01*
X23034524Y-95085771D02*
X22986905Y-95038152D01*
X22986905Y-95038152D02*
X22939286Y-94942914D01*
X22939286Y-94942914D02*
X22939286Y-94895295D01*
X22939286Y-94895295D02*
X22986905Y-94800057D01*
X22986905Y-94800057D02*
X23034524Y-94752438D01*
X23034524Y-94752438D02*
X23129762Y-94704819D01*
X23129762Y-94704819D02*
X23320238Y-94704819D01*
X23320238Y-94704819D02*
X23415476Y-94752438D01*
X23415476Y-94752438D02*
X23463095Y-94800057D01*
X23463095Y-94800057D02*
X23510714Y-94895295D01*
X23510714Y-94895295D02*
X23510714Y-94942914D01*
X23510714Y-94942914D02*
X23463095Y-95038152D01*
X23463095Y-95038152D02*
X23415476Y-95085771D01*
X23415476Y-95085771D02*
X23320238Y-95133390D01*
X23320238Y-95133390D02*
X23129762Y-95133390D01*
X23129762Y-95133390D02*
X23034524Y-95181009D01*
X23034524Y-95181009D02*
X22986905Y-95228628D01*
X22986905Y-95228628D02*
X22939286Y-95323866D01*
X22939286Y-95323866D02*
X22939286Y-95514342D01*
X22939286Y-95514342D02*
X22986905Y-95609580D01*
X22986905Y-95609580D02*
X23034524Y-95657200D01*
X23034524Y-95657200D02*
X23129762Y-95704819D01*
X23129762Y-95704819D02*
X23320238Y-95704819D01*
X23320238Y-95704819D02*
X23415476Y-95657200D01*
X23415476Y-95657200D02*
X23463095Y-95609580D01*
X23463095Y-95609580D02*
X23510714Y-95514342D01*
X23510714Y-95514342D02*
X23510714Y-95323866D01*
X23510714Y-95323866D02*
X23463095Y-95228628D01*
X23463095Y-95228628D02*
X23415476Y-95181009D01*
X23415476Y-95181009D02*
X23320238Y-95133390D01*
X54887905Y-54048819D02*
X54887905Y-53048819D01*
X54887905Y-53048819D02*
X55126000Y-53048819D01*
X55126000Y-53048819D02*
X55268857Y-53096438D01*
X55268857Y-53096438D02*
X55364095Y-53191676D01*
X55364095Y-53191676D02*
X55411714Y-53286914D01*
X55411714Y-53286914D02*
X55459333Y-53477390D01*
X55459333Y-53477390D02*
X55459333Y-53620247D01*
X55459333Y-53620247D02*
X55411714Y-53810723D01*
X55411714Y-53810723D02*
X55364095Y-53905961D01*
X55364095Y-53905961D02*
X55268857Y-54001200D01*
X55268857Y-54001200D02*
X55126000Y-54048819D01*
X55126000Y-54048819D02*
X54887905Y-54048819D01*
X56364095Y-53048819D02*
X55887905Y-53048819D01*
X55887905Y-53048819D02*
X55840286Y-53525009D01*
X55840286Y-53525009D02*
X55887905Y-53477390D01*
X55887905Y-53477390D02*
X55983143Y-53429771D01*
X55983143Y-53429771D02*
X56221238Y-53429771D01*
X56221238Y-53429771D02*
X56316476Y-53477390D01*
X56316476Y-53477390D02*
X56364095Y-53525009D01*
X56364095Y-53525009D02*
X56411714Y-53620247D01*
X56411714Y-53620247D02*
X56411714Y-53858342D01*
X56411714Y-53858342D02*
X56364095Y-53953580D01*
X56364095Y-53953580D02*
X56316476Y-54001200D01*
X56316476Y-54001200D02*
X56221238Y-54048819D01*
X56221238Y-54048819D02*
X55983143Y-54048819D01*
X55983143Y-54048819D02*
X55887905Y-54001200D01*
X55887905Y-54001200D02*
X55840286Y-53953580D01*
X25658819Y-44049904D02*
X26468342Y-44049904D01*
X26468342Y-44049904D02*
X26563580Y-44002285D01*
X26563580Y-44002285D02*
X26611200Y-43954666D01*
X26611200Y-43954666D02*
X26658819Y-43859428D01*
X26658819Y-43859428D02*
X26658819Y-43668952D01*
X26658819Y-43668952D02*
X26611200Y-43573714D01*
X26611200Y-43573714D02*
X26563580Y-43526095D01*
X26563580Y-43526095D02*
X26468342Y-43478476D01*
X26468342Y-43478476D02*
X25658819Y-43478476D01*
X26658819Y-42478476D02*
X26658819Y-43049904D01*
X26658819Y-42764190D02*
X25658819Y-42764190D01*
X25658819Y-42764190D02*
X25801676Y-42859428D01*
X25801676Y-42859428D02*
X25896914Y-42954666D01*
X25896914Y-42954666D02*
X25944533Y-43049904D01*
X42076666Y-32464819D02*
X42076666Y-33179104D01*
X42076666Y-33179104D02*
X42029047Y-33321961D01*
X42029047Y-33321961D02*
X41933809Y-33417200D01*
X41933809Y-33417200D02*
X41790952Y-33464819D01*
X41790952Y-33464819D02*
X41695714Y-33464819D01*
X43076666Y-33464819D02*
X42505238Y-33464819D01*
X42790952Y-33464819D02*
X42790952Y-32464819D01*
X42790952Y-32464819D02*
X42695714Y-32607676D01*
X42695714Y-32607676D02*
X42600476Y-32702914D01*
X42600476Y-32702914D02*
X42505238Y-32750533D01*
X26475095Y-110420819D02*
X26475095Y-109420819D01*
X26475095Y-109897009D02*
X27046523Y-109897009D01*
X27046523Y-110420819D02*
X27046523Y-109420819D01*
X27951285Y-109754152D02*
X27951285Y-110420819D01*
X27713190Y-109373200D02*
X27475095Y-110087485D01*
X27475095Y-110087485D02*
X28094142Y-110087485D01*
X40261666Y-109454819D02*
X40261666Y-110169104D01*
X40261666Y-110169104D02*
X40214047Y-110311961D01*
X40214047Y-110311961D02*
X40118809Y-110407200D01*
X40118809Y-110407200D02*
X39975952Y-110454819D01*
X39975952Y-110454819D02*
X39880714Y-110454819D01*
X40642619Y-109454819D02*
X41261666Y-109454819D01*
X41261666Y-109454819D02*
X40928333Y-109835771D01*
X40928333Y-109835771D02*
X41071190Y-109835771D01*
X41071190Y-109835771D02*
X41166428Y-109883390D01*
X41166428Y-109883390D02*
X41214047Y-109931009D01*
X41214047Y-109931009D02*
X41261666Y-110026247D01*
X41261666Y-110026247D02*
X41261666Y-110264342D01*
X41261666Y-110264342D02*
X41214047Y-110359580D01*
X41214047Y-110359580D02*
X41166428Y-110407200D01*
X41166428Y-110407200D02*
X41071190Y-110454819D01*
X41071190Y-110454819D02*
X40785476Y-110454819D01*
X40785476Y-110454819D02*
X40690238Y-110407200D01*
X40690238Y-110407200D02*
X40642619Y-110359580D01*
X67828095Y-33695819D02*
X67828095Y-34505342D01*
X67828095Y-34505342D02*
X67875714Y-34600580D01*
X67875714Y-34600580D02*
X67923333Y-34648200D01*
X67923333Y-34648200D02*
X68018571Y-34695819D01*
X68018571Y-34695819D02*
X68209047Y-34695819D01*
X68209047Y-34695819D02*
X68304285Y-34648200D01*
X68304285Y-34648200D02*
X68351904Y-34600580D01*
X68351904Y-34600580D02*
X68399523Y-34505342D01*
X68399523Y-34505342D02*
X68399523Y-33695819D01*
X69351904Y-33695819D02*
X68875714Y-33695819D01*
X68875714Y-33695819D02*
X68828095Y-34172009D01*
X68828095Y-34172009D02*
X68875714Y-34124390D01*
X68875714Y-34124390D02*
X68970952Y-34076771D01*
X68970952Y-34076771D02*
X69209047Y-34076771D01*
X69209047Y-34076771D02*
X69304285Y-34124390D01*
X69304285Y-34124390D02*
X69351904Y-34172009D01*
X69351904Y-34172009D02*
X69399523Y-34267247D01*
X69399523Y-34267247D02*
X69399523Y-34505342D01*
X69399523Y-34505342D02*
X69351904Y-34600580D01*
X69351904Y-34600580D02*
X69304285Y-34648200D01*
X69304285Y-34648200D02*
X69209047Y-34695819D01*
X69209047Y-34695819D02*
X68970952Y-34695819D01*
X68970952Y-34695819D02*
X68875714Y-34648200D01*
X68875714Y-34648200D02*
X68828095Y-34600580D01*
X86180819Y-83867857D02*
X85704628Y-84201190D01*
X86180819Y-84439285D02*
X85180819Y-84439285D01*
X85180819Y-84439285D02*
X85180819Y-84058333D01*
X85180819Y-84058333D02*
X85228438Y-83963095D01*
X85228438Y-83963095D02*
X85276057Y-83915476D01*
X85276057Y-83915476D02*
X85371295Y-83867857D01*
X85371295Y-83867857D02*
X85514152Y-83867857D01*
X85514152Y-83867857D02*
X85609390Y-83915476D01*
X85609390Y-83915476D02*
X85657009Y-83963095D01*
X85657009Y-83963095D02*
X85704628Y-84058333D01*
X85704628Y-84058333D02*
X85704628Y-84439285D01*
X86180819Y-82915476D02*
X86180819Y-83486904D01*
X86180819Y-83201190D02*
X85180819Y-83201190D01*
X85180819Y-83201190D02*
X85323676Y-83296428D01*
X85323676Y-83296428D02*
X85418914Y-83391666D01*
X85418914Y-83391666D02*
X85466533Y-83486904D01*
X85180819Y-82582142D02*
X85180819Y-81915476D01*
X85180819Y-81915476D02*
X86180819Y-82344047D01*
X62404666Y-32728819D02*
X62404666Y-33443104D01*
X62404666Y-33443104D02*
X62357047Y-33585961D01*
X62357047Y-33585961D02*
X62261809Y-33681200D01*
X62261809Y-33681200D02*
X62118952Y-33728819D01*
X62118952Y-33728819D02*
X62023714Y-33728819D01*
X63309428Y-32728819D02*
X63118952Y-32728819D01*
X63118952Y-32728819D02*
X63023714Y-32776438D01*
X63023714Y-32776438D02*
X62976095Y-32824057D01*
X62976095Y-32824057D02*
X62880857Y-32966914D01*
X62880857Y-32966914D02*
X62833238Y-33157390D01*
X62833238Y-33157390D02*
X62833238Y-33538342D01*
X62833238Y-33538342D02*
X62880857Y-33633580D01*
X62880857Y-33633580D02*
X62928476Y-33681200D01*
X62928476Y-33681200D02*
X63023714Y-33728819D01*
X63023714Y-33728819D02*
X63214190Y-33728819D01*
X63214190Y-33728819D02*
X63309428Y-33681200D01*
X63309428Y-33681200D02*
X63357047Y-33633580D01*
X63357047Y-33633580D02*
X63404666Y-33538342D01*
X63404666Y-33538342D02*
X63404666Y-33300247D01*
X63404666Y-33300247D02*
X63357047Y-33205009D01*
X63357047Y-33205009D02*
X63309428Y-33157390D01*
X63309428Y-33157390D02*
X63214190Y-33109771D01*
X63214190Y-33109771D02*
X63023714Y-33109771D01*
X63023714Y-33109771D02*
X62928476Y-33157390D01*
X62928476Y-33157390D02*
X62880857Y-33205009D01*
X62880857Y-33205009D02*
X62833238Y-33300247D01*
X94829333Y-68272819D02*
X94496000Y-67796628D01*
X94257905Y-68272819D02*
X94257905Y-67272819D01*
X94257905Y-67272819D02*
X94638857Y-67272819D01*
X94638857Y-67272819D02*
X94734095Y-67320438D01*
X94734095Y-67320438D02*
X94781714Y-67368057D01*
X94781714Y-67368057D02*
X94829333Y-67463295D01*
X94829333Y-67463295D02*
X94829333Y-67606152D01*
X94829333Y-67606152D02*
X94781714Y-67701390D01*
X94781714Y-67701390D02*
X94734095Y-67749009D01*
X94734095Y-67749009D02*
X94638857Y-67796628D01*
X94638857Y-67796628D02*
X94257905Y-67796628D01*
X95162667Y-67272819D02*
X95781714Y-67272819D01*
X95781714Y-67272819D02*
X95448381Y-67653771D01*
X95448381Y-67653771D02*
X95591238Y-67653771D01*
X95591238Y-67653771D02*
X95686476Y-67701390D01*
X95686476Y-67701390D02*
X95734095Y-67749009D01*
X95734095Y-67749009D02*
X95781714Y-67844247D01*
X95781714Y-67844247D02*
X95781714Y-68082342D01*
X95781714Y-68082342D02*
X95734095Y-68177580D01*
X95734095Y-68177580D02*
X95686476Y-68225200D01*
X95686476Y-68225200D02*
X95591238Y-68272819D01*
X95591238Y-68272819D02*
X95305524Y-68272819D01*
X95305524Y-68272819D02*
X95210286Y-68225200D01*
X95210286Y-68225200D02*
X95162667Y-68177580D01*
X54887905Y-47404819D02*
X54887905Y-46404819D01*
X54887905Y-46404819D02*
X55126000Y-46404819D01*
X55126000Y-46404819D02*
X55268857Y-46452438D01*
X55268857Y-46452438D02*
X55364095Y-46547676D01*
X55364095Y-46547676D02*
X55411714Y-46642914D01*
X55411714Y-46642914D02*
X55459333Y-46833390D01*
X55459333Y-46833390D02*
X55459333Y-46976247D01*
X55459333Y-46976247D02*
X55411714Y-47166723D01*
X55411714Y-47166723D02*
X55364095Y-47261961D01*
X55364095Y-47261961D02*
X55268857Y-47357200D01*
X55268857Y-47357200D02*
X55126000Y-47404819D01*
X55126000Y-47404819D02*
X54887905Y-47404819D01*
X56316476Y-46404819D02*
X56126000Y-46404819D01*
X56126000Y-46404819D02*
X56030762Y-46452438D01*
X56030762Y-46452438D02*
X55983143Y-46500057D01*
X55983143Y-46500057D02*
X55887905Y-46642914D01*
X55887905Y-46642914D02*
X55840286Y-46833390D01*
X55840286Y-46833390D02*
X55840286Y-47214342D01*
X55840286Y-47214342D02*
X55887905Y-47309580D01*
X55887905Y-47309580D02*
X55935524Y-47357200D01*
X55935524Y-47357200D02*
X56030762Y-47404819D01*
X56030762Y-47404819D02*
X56221238Y-47404819D01*
X56221238Y-47404819D02*
X56316476Y-47357200D01*
X56316476Y-47357200D02*
X56364095Y-47309580D01*
X56364095Y-47309580D02*
X56411714Y-47214342D01*
X56411714Y-47214342D02*
X56411714Y-46976247D01*
X56411714Y-46976247D02*
X56364095Y-46881009D01*
X56364095Y-46881009D02*
X56316476Y-46833390D01*
X56316476Y-46833390D02*
X56221238Y-46785771D01*
X56221238Y-46785771D02*
X56030762Y-46785771D01*
X56030762Y-46785771D02*
X55935524Y-46833390D01*
X55935524Y-46833390D02*
X55887905Y-46881009D01*
X55887905Y-46881009D02*
X55840286Y-46976247D01*
X97387580Y-38996857D02*
X97435200Y-39044476D01*
X97435200Y-39044476D02*
X97482819Y-39187333D01*
X97482819Y-39187333D02*
X97482819Y-39282571D01*
X97482819Y-39282571D02*
X97435200Y-39425428D01*
X97435200Y-39425428D02*
X97339961Y-39520666D01*
X97339961Y-39520666D02*
X97244723Y-39568285D01*
X97244723Y-39568285D02*
X97054247Y-39615904D01*
X97054247Y-39615904D02*
X96911390Y-39615904D01*
X96911390Y-39615904D02*
X96720914Y-39568285D01*
X96720914Y-39568285D02*
X96625676Y-39520666D01*
X96625676Y-39520666D02*
X96530438Y-39425428D01*
X96530438Y-39425428D02*
X96482819Y-39282571D01*
X96482819Y-39282571D02*
X96482819Y-39187333D01*
X96482819Y-39187333D02*
X96530438Y-39044476D01*
X96530438Y-39044476D02*
X96578057Y-38996857D01*
X97482819Y-38044476D02*
X97482819Y-38615904D01*
X97482819Y-38330190D02*
X96482819Y-38330190D01*
X96482819Y-38330190D02*
X96625676Y-38425428D01*
X96625676Y-38425428D02*
X96720914Y-38520666D01*
X96720914Y-38520666D02*
X96768533Y-38615904D01*
X96482819Y-37425428D02*
X96482819Y-37330190D01*
X96482819Y-37330190D02*
X96530438Y-37234952D01*
X96530438Y-37234952D02*
X96578057Y-37187333D01*
X96578057Y-37187333D02*
X96673295Y-37139714D01*
X96673295Y-37139714D02*
X96863771Y-37092095D01*
X96863771Y-37092095D02*
X97101866Y-37092095D01*
X97101866Y-37092095D02*
X97292342Y-37139714D01*
X97292342Y-37139714D02*
X97387580Y-37187333D01*
X97387580Y-37187333D02*
X97435200Y-37234952D01*
X97435200Y-37234952D02*
X97482819Y-37330190D01*
X97482819Y-37330190D02*
X97482819Y-37425428D01*
X97482819Y-37425428D02*
X97435200Y-37520666D01*
X97435200Y-37520666D02*
X97387580Y-37568285D01*
X97387580Y-37568285D02*
X97292342Y-37615904D01*
X97292342Y-37615904D02*
X97101866Y-37663523D01*
X97101866Y-37663523D02*
X96863771Y-37663523D01*
X96863771Y-37663523D02*
X96673295Y-37615904D01*
X96673295Y-37615904D02*
X96578057Y-37568285D01*
X96578057Y-37568285D02*
X96530438Y-37520666D01*
X96530438Y-37520666D02*
X96482819Y-37425428D01*
X95877142Y-33474819D02*
X95543809Y-32998628D01*
X95305714Y-33474819D02*
X95305714Y-32474819D01*
X95305714Y-32474819D02*
X95686666Y-32474819D01*
X95686666Y-32474819D02*
X95781904Y-32522438D01*
X95781904Y-32522438D02*
X95829523Y-32570057D01*
X95829523Y-32570057D02*
X95877142Y-32665295D01*
X95877142Y-32665295D02*
X95877142Y-32808152D01*
X95877142Y-32808152D02*
X95829523Y-32903390D01*
X95829523Y-32903390D02*
X95781904Y-32951009D01*
X95781904Y-32951009D02*
X95686666Y-32998628D01*
X95686666Y-32998628D02*
X95305714Y-32998628D01*
X96258095Y-32570057D02*
X96305714Y-32522438D01*
X96305714Y-32522438D02*
X96400952Y-32474819D01*
X96400952Y-32474819D02*
X96639047Y-32474819D01*
X96639047Y-32474819D02*
X96734285Y-32522438D01*
X96734285Y-32522438D02*
X96781904Y-32570057D01*
X96781904Y-32570057D02*
X96829523Y-32665295D01*
X96829523Y-32665295D02*
X96829523Y-32760533D01*
X96829523Y-32760533D02*
X96781904Y-32903390D01*
X96781904Y-32903390D02*
X96210476Y-33474819D01*
X96210476Y-33474819D02*
X96829523Y-33474819D01*
X97448571Y-32474819D02*
X97543809Y-32474819D01*
X97543809Y-32474819D02*
X97639047Y-32522438D01*
X97639047Y-32522438D02*
X97686666Y-32570057D01*
X97686666Y-32570057D02*
X97734285Y-32665295D01*
X97734285Y-32665295D02*
X97781904Y-32855771D01*
X97781904Y-32855771D02*
X97781904Y-33093866D01*
X97781904Y-33093866D02*
X97734285Y-33284342D01*
X97734285Y-33284342D02*
X97686666Y-33379580D01*
X97686666Y-33379580D02*
X97639047Y-33427200D01*
X97639047Y-33427200D02*
X97543809Y-33474819D01*
X97543809Y-33474819D02*
X97448571Y-33474819D01*
X97448571Y-33474819D02*
X97353333Y-33427200D01*
X97353333Y-33427200D02*
X97305714Y-33379580D01*
X97305714Y-33379580D02*
X97258095Y-33284342D01*
X97258095Y-33284342D02*
X97210476Y-33093866D01*
X97210476Y-33093866D02*
X97210476Y-32855771D01*
X97210476Y-32855771D02*
X97258095Y-32665295D01*
X97258095Y-32665295D02*
X97305714Y-32570057D01*
X97305714Y-32570057D02*
X97353333Y-32522438D01*
X97353333Y-32522438D02*
X97448571Y-32474819D01*
X96361666Y-109454819D02*
X96361666Y-110169104D01*
X96361666Y-110169104D02*
X96314047Y-110311961D01*
X96314047Y-110311961D02*
X96218809Y-110407200D01*
X96218809Y-110407200D02*
X96075952Y-110454819D01*
X96075952Y-110454819D02*
X95980714Y-110454819D01*
X96980714Y-109883390D02*
X96885476Y-109835771D01*
X96885476Y-109835771D02*
X96837857Y-109788152D01*
X96837857Y-109788152D02*
X96790238Y-109692914D01*
X96790238Y-109692914D02*
X96790238Y-109645295D01*
X96790238Y-109645295D02*
X96837857Y-109550057D01*
X96837857Y-109550057D02*
X96885476Y-109502438D01*
X96885476Y-109502438D02*
X96980714Y-109454819D01*
X96980714Y-109454819D02*
X97171190Y-109454819D01*
X97171190Y-109454819D02*
X97266428Y-109502438D01*
X97266428Y-109502438D02*
X97314047Y-109550057D01*
X97314047Y-109550057D02*
X97361666Y-109645295D01*
X97361666Y-109645295D02*
X97361666Y-109692914D01*
X97361666Y-109692914D02*
X97314047Y-109788152D01*
X97314047Y-109788152D02*
X97266428Y-109835771D01*
X97266428Y-109835771D02*
X97171190Y-109883390D01*
X97171190Y-109883390D02*
X96980714Y-109883390D01*
X96980714Y-109883390D02*
X96885476Y-109931009D01*
X96885476Y-109931009D02*
X96837857Y-109978628D01*
X96837857Y-109978628D02*
X96790238Y-110073866D01*
X96790238Y-110073866D02*
X96790238Y-110264342D01*
X96790238Y-110264342D02*
X96837857Y-110359580D01*
X96837857Y-110359580D02*
X96885476Y-110407200D01*
X96885476Y-110407200D02*
X96980714Y-110454819D01*
X96980714Y-110454819D02*
X97171190Y-110454819D01*
X97171190Y-110454819D02*
X97266428Y-110407200D01*
X97266428Y-110407200D02*
X97314047Y-110359580D01*
X97314047Y-110359580D02*
X97361666Y-110264342D01*
X97361666Y-110264342D02*
X97361666Y-110073866D01*
X97361666Y-110073866D02*
X97314047Y-109978628D01*
X97314047Y-109978628D02*
X97266428Y-109931009D01*
X97266428Y-109931009D02*
X97171190Y-109883390D01*
X115888714Y-92075819D02*
X115888714Y-91075819D01*
X115888714Y-91075819D02*
X116126809Y-91075819D01*
X116126809Y-91075819D02*
X116269666Y-91123438D01*
X116269666Y-91123438D02*
X116364904Y-91218676D01*
X116364904Y-91218676D02*
X116412523Y-91313914D01*
X116412523Y-91313914D02*
X116460142Y-91504390D01*
X116460142Y-91504390D02*
X116460142Y-91647247D01*
X116460142Y-91647247D02*
X116412523Y-91837723D01*
X116412523Y-91837723D02*
X116364904Y-91932961D01*
X116364904Y-91932961D02*
X116269666Y-92028200D01*
X116269666Y-92028200D02*
X116126809Y-92075819D01*
X116126809Y-92075819D02*
X115888714Y-92075819D01*
X117412523Y-92075819D02*
X116841095Y-92075819D01*
X117126809Y-92075819D02*
X117126809Y-91075819D01*
X117126809Y-91075819D02*
X117031571Y-91218676D01*
X117031571Y-91218676D02*
X116936333Y-91313914D01*
X116936333Y-91313914D02*
X116841095Y-91361533D01*
X118364904Y-92075819D02*
X117793476Y-92075819D01*
X118079190Y-92075819D02*
X118079190Y-91075819D01*
X118079190Y-91075819D02*
X117983952Y-91218676D01*
X117983952Y-91218676D02*
X117888714Y-91313914D01*
X117888714Y-91313914D02*
X117793476Y-91361533D01*
X115888714Y-88629819D02*
X115888714Y-87629819D01*
X115888714Y-87629819D02*
X116126809Y-87629819D01*
X116126809Y-87629819D02*
X116269666Y-87677438D01*
X116269666Y-87677438D02*
X116364904Y-87772676D01*
X116364904Y-87772676D02*
X116412523Y-87867914D01*
X116412523Y-87867914D02*
X116460142Y-88058390D01*
X116460142Y-88058390D02*
X116460142Y-88201247D01*
X116460142Y-88201247D02*
X116412523Y-88391723D01*
X116412523Y-88391723D02*
X116364904Y-88486961D01*
X116364904Y-88486961D02*
X116269666Y-88582200D01*
X116269666Y-88582200D02*
X116126809Y-88629819D01*
X116126809Y-88629819D02*
X115888714Y-88629819D01*
X117412523Y-88629819D02*
X116841095Y-88629819D01*
X117126809Y-88629819D02*
X117126809Y-87629819D01*
X117126809Y-87629819D02*
X117031571Y-87772676D01*
X117031571Y-87772676D02*
X116936333Y-87867914D01*
X116936333Y-87867914D02*
X116841095Y-87915533D01*
X117745857Y-87629819D02*
X118364904Y-87629819D01*
X118364904Y-87629819D02*
X118031571Y-88010771D01*
X118031571Y-88010771D02*
X118174428Y-88010771D01*
X118174428Y-88010771D02*
X118269666Y-88058390D01*
X118269666Y-88058390D02*
X118317285Y-88106009D01*
X118317285Y-88106009D02*
X118364904Y-88201247D01*
X118364904Y-88201247D02*
X118364904Y-88439342D01*
X118364904Y-88439342D02*
X118317285Y-88534580D01*
X118317285Y-88534580D02*
X118269666Y-88582200D01*
X118269666Y-88582200D02*
X118174428Y-88629819D01*
X118174428Y-88629819D02*
X117888714Y-88629819D01*
X117888714Y-88629819D02*
X117793476Y-88582200D01*
X117793476Y-88582200D02*
X117745857Y-88534580D01*
X46487333Y-58427580D02*
X46439714Y-58475200D01*
X46439714Y-58475200D02*
X46296857Y-58522819D01*
X46296857Y-58522819D02*
X46201619Y-58522819D01*
X46201619Y-58522819D02*
X46058762Y-58475200D01*
X46058762Y-58475200D02*
X45963524Y-58379961D01*
X45963524Y-58379961D02*
X45915905Y-58284723D01*
X45915905Y-58284723D02*
X45868286Y-58094247D01*
X45868286Y-58094247D02*
X45868286Y-57951390D01*
X45868286Y-57951390D02*
X45915905Y-57760914D01*
X45915905Y-57760914D02*
X45963524Y-57665676D01*
X45963524Y-57665676D02*
X46058762Y-57570438D01*
X46058762Y-57570438D02*
X46201619Y-57522819D01*
X46201619Y-57522819D02*
X46296857Y-57522819D01*
X46296857Y-57522819D02*
X46439714Y-57570438D01*
X46439714Y-57570438D02*
X46487333Y-57618057D01*
X47392095Y-57522819D02*
X46915905Y-57522819D01*
X46915905Y-57522819D02*
X46868286Y-57999009D01*
X46868286Y-57999009D02*
X46915905Y-57951390D01*
X46915905Y-57951390D02*
X47011143Y-57903771D01*
X47011143Y-57903771D02*
X47249238Y-57903771D01*
X47249238Y-57903771D02*
X47344476Y-57951390D01*
X47344476Y-57951390D02*
X47392095Y-57999009D01*
X47392095Y-57999009D02*
X47439714Y-58094247D01*
X47439714Y-58094247D02*
X47439714Y-58332342D01*
X47439714Y-58332342D02*
X47392095Y-58427580D01*
X47392095Y-58427580D02*
X47344476Y-58475200D01*
X47344476Y-58475200D02*
X47249238Y-58522819D01*
X47249238Y-58522819D02*
X47011143Y-58522819D01*
X47011143Y-58522819D02*
X46915905Y-58475200D01*
X46915905Y-58475200D02*
X46868286Y-58427580D01*
X40508819Y-63654666D02*
X40508819Y-64130856D01*
X40508819Y-64130856D02*
X39508819Y-64130856D01*
X40508819Y-62797523D02*
X40508819Y-63368951D01*
X40508819Y-63083237D02*
X39508819Y-63083237D01*
X39508819Y-63083237D02*
X39651676Y-63178475D01*
X39651676Y-63178475D02*
X39746914Y-63273713D01*
X39746914Y-63273713D02*
X39794533Y-63368951D01*
X99966667Y-26174700D02*
X100109524Y-26222319D01*
X100109524Y-26222319D02*
X100347619Y-26222319D01*
X100347619Y-26222319D02*
X100442857Y-26174700D01*
X100442857Y-26174700D02*
X100490476Y-26127080D01*
X100490476Y-26127080D02*
X100538095Y-26031842D01*
X100538095Y-26031842D02*
X100538095Y-25936604D01*
X100538095Y-25936604D02*
X100490476Y-25841366D01*
X100490476Y-25841366D02*
X100442857Y-25793747D01*
X100442857Y-25793747D02*
X100347619Y-25746128D01*
X100347619Y-25746128D02*
X100157143Y-25698509D01*
X100157143Y-25698509D02*
X100061905Y-25650890D01*
X100061905Y-25650890D02*
X100014286Y-25603271D01*
X100014286Y-25603271D02*
X99966667Y-25508033D01*
X99966667Y-25508033D02*
X99966667Y-25412795D01*
X99966667Y-25412795D02*
X100014286Y-25317557D01*
X100014286Y-25317557D02*
X100061905Y-25269938D01*
X100061905Y-25269938D02*
X100157143Y-25222319D01*
X100157143Y-25222319D02*
X100395238Y-25222319D01*
X100395238Y-25222319D02*
X100538095Y-25269938D01*
X100871429Y-25222319D02*
X101109524Y-26222319D01*
X101109524Y-26222319D02*
X101300000Y-25508033D01*
X101300000Y-25508033D02*
X101490476Y-26222319D01*
X101490476Y-26222319D02*
X101728572Y-25222319D01*
X102633333Y-26222319D02*
X102061905Y-26222319D01*
X102347619Y-26222319D02*
X102347619Y-25222319D01*
X102347619Y-25222319D02*
X102252381Y-25365176D01*
X102252381Y-25365176D02*
X102157143Y-25460414D01*
X102157143Y-25460414D02*
X102061905Y-25508033D01*
D12*
%TO.C,D12*%
X70022000Y-81475000D02*
X70022000Y-84775000D01*
X70022000Y-81475000D02*
X76922000Y-81475000D01*
X70022000Y-84775000D02*
X76922000Y-84775000D01*
%TO.C,K4*%
X104500000Y-86550000D02*
X97900000Y-86550000D01*
X104500000Y-86550000D02*
X104500000Y-106350000D01*
X95500000Y-86550000D02*
X88900000Y-86550000D01*
X96650000Y-90600000D02*
X96650000Y-89800000D01*
X96650000Y-90600000D02*
X93050000Y-90600000D01*
X90650000Y-91500000D02*
X90650000Y-94000000D01*
X98450000Y-92000000D02*
X98450000Y-96000000D01*
X94850000Y-92000000D02*
X98450000Y-92000000D01*
X102650000Y-94000000D02*
X102650000Y-91500000D01*
X102650000Y-94000000D02*
X98450000Y-94000000D01*
X94850000Y-94000000D02*
X90650000Y-94000000D01*
X98450000Y-96000000D02*
X94850000Y-96000000D01*
X94850000Y-96000000D02*
X98450000Y-92000000D01*
X94850000Y-96000000D02*
X94850000Y-92000000D01*
X96650000Y-97400000D02*
X93050000Y-97400000D01*
X96650000Y-97400000D02*
X96650000Y-98900000D01*
X93050000Y-97400000D02*
X93050000Y-90600000D01*
X96650000Y-98900000D02*
X99150000Y-103500000D01*
X100900000Y-102100000D02*
X98400000Y-102100000D01*
X92500000Y-102100000D02*
X94950000Y-102100000D01*
X104500000Y-106350000D02*
X88900000Y-106350000D01*
X88900000Y-106350000D02*
X88900000Y-86550000D01*
%TO.C,Q4*%
X100864000Y-84705000D02*
X104024000Y-84705000D01*
X100864000Y-84705000D02*
X100864000Y-83775000D01*
X100864000Y-81545000D02*
X102324000Y-81545000D01*
X100864000Y-81545000D02*
X100864000Y-82475000D01*
%TO.C,R8*%
X99594936Y-35587000D02*
X100049064Y-35587000D01*
X99594936Y-37057000D02*
X100049064Y-37057000D01*
%TO.C,C1*%
X45989000Y-49126748D02*
X45989000Y-49649252D01*
X44519000Y-49126748D02*
X44519000Y-49649252D01*
%TO.C,R13*%
X27827064Y-94235000D02*
X27372936Y-94235000D01*
X27827064Y-92765000D02*
X27372936Y-92765000D01*
%TO.C,C7*%
X40689000Y-75526748D02*
X40689000Y-76049252D01*
X39219000Y-75526748D02*
X39219000Y-76049252D01*
%TO.C,R15*%
X98271064Y-64489000D02*
X97816936Y-64489000D01*
X98271064Y-63019000D02*
X97816936Y-63019000D01*
%TO.C,R4*%
X98287064Y-70585000D02*
X97832936Y-70585000D01*
X98287064Y-69115000D02*
X97832936Y-69115000D01*
%TO.C,R18*%
X112564936Y-89045000D02*
X113019064Y-89045000D01*
X112564936Y-90515000D02*
X113019064Y-90515000D01*
%TO.C,K2*%
X66991000Y-86550000D02*
X60391000Y-86550000D01*
X66991000Y-86550000D02*
X66991000Y-106350000D01*
X57991000Y-86550000D02*
X51391000Y-86550000D01*
X59141000Y-90600000D02*
X59141000Y-89800000D01*
X59141000Y-90600000D02*
X55541000Y-90600000D01*
X53141000Y-91500000D02*
X53141000Y-94000000D01*
X60941000Y-92000000D02*
X60941000Y-96000000D01*
X57341000Y-92000000D02*
X60941000Y-92000000D01*
X65141000Y-94000000D02*
X65141000Y-91500000D01*
X65141000Y-94000000D02*
X60941000Y-94000000D01*
X57341000Y-94000000D02*
X53141000Y-94000000D01*
X60941000Y-96000000D02*
X57341000Y-96000000D01*
X57341000Y-96000000D02*
X60941000Y-92000000D01*
X57341000Y-96000000D02*
X57341000Y-92000000D01*
X59141000Y-97400000D02*
X55541000Y-97400000D01*
X59141000Y-97400000D02*
X59141000Y-98900000D01*
X55541000Y-97400000D02*
X55541000Y-90600000D01*
X59141000Y-98900000D02*
X61641000Y-103500000D01*
X63391000Y-102100000D02*
X60891000Y-102100000D01*
X54991000Y-102100000D02*
X57441000Y-102100000D01*
X66991000Y-106350000D02*
X51391000Y-106350000D01*
X51391000Y-106350000D02*
X51391000Y-86550000D01*
%TO.C,C2*%
X25019000Y-49049252D02*
X25019000Y-48526748D01*
X26489000Y-49049252D02*
X26489000Y-48526748D01*
%TO.C,K1*%
X48400000Y-86550000D02*
X41800000Y-86550000D01*
X48400000Y-86550000D02*
X48400000Y-106350000D01*
X39400000Y-86550000D02*
X32800000Y-86550000D01*
X40550000Y-90600000D02*
X40550000Y-89800000D01*
X40550000Y-90600000D02*
X36950000Y-90600000D01*
X34550000Y-91500000D02*
X34550000Y-94000000D01*
X42350000Y-92000000D02*
X42350000Y-96000000D01*
X38750000Y-92000000D02*
X42350000Y-92000000D01*
X46550000Y-94000000D02*
X46550000Y-91500000D01*
X46550000Y-94000000D02*
X42350000Y-94000000D01*
X38750000Y-94000000D02*
X34550000Y-94000000D01*
X42350000Y-96000000D02*
X38750000Y-96000000D01*
X38750000Y-96000000D02*
X42350000Y-92000000D01*
X38750000Y-96000000D02*
X38750000Y-92000000D01*
X40550000Y-97400000D02*
X36950000Y-97400000D01*
X40550000Y-97400000D02*
X40550000Y-98900000D01*
X36950000Y-97400000D02*
X36950000Y-90600000D01*
X40550000Y-98900000D02*
X43050000Y-103500000D01*
X44800000Y-102100000D02*
X42300000Y-102100000D01*
X36400000Y-102100000D02*
X38850000Y-102100000D01*
X48400000Y-106350000D02*
X32800000Y-106350000D01*
X32800000Y-106350000D02*
X32800000Y-86550000D01*
%TO.C,D2*%
X33554000Y-53138000D02*
X41954000Y-53138000D01*
X33554000Y-59638000D02*
X33554000Y-53138000D01*
X33554000Y-59638000D02*
X41954000Y-59638000D01*
%TO.C,R5*%
X106453000Y-35481564D02*
X106453000Y-35027436D01*
X107923000Y-35481564D02*
X107923000Y-35027436D01*
%TO.C,R6*%
X47298000Y-83402064D02*
X47298000Y-82947936D01*
X48768000Y-83402064D02*
X48768000Y-82947936D01*
%TO.C,K3*%
X85700000Y-86550000D02*
X79100000Y-86550000D01*
X85700000Y-86550000D02*
X85700000Y-106350000D01*
X76700000Y-86550000D02*
X70100000Y-86550000D01*
X77850000Y-90600000D02*
X77850000Y-89800000D01*
X77850000Y-90600000D02*
X74250000Y-90600000D01*
X71850000Y-91500000D02*
X71850000Y-94000000D01*
X79650000Y-92000000D02*
X79650000Y-96000000D01*
X76050000Y-92000000D02*
X79650000Y-92000000D01*
X83850000Y-94000000D02*
X83850000Y-91500000D01*
X83850000Y-94000000D02*
X79650000Y-94000000D01*
X76050000Y-94000000D02*
X71850000Y-94000000D01*
X79650000Y-96000000D02*
X76050000Y-96000000D01*
X76050000Y-96000000D02*
X79650000Y-92000000D01*
X76050000Y-96000000D02*
X76050000Y-92000000D01*
X77850000Y-97400000D02*
X74250000Y-97400000D01*
X77850000Y-97400000D02*
X77850000Y-98900000D01*
X74250000Y-97400000D02*
X74250000Y-90600000D01*
X77850000Y-98900000D02*
X80350000Y-103500000D01*
X82100000Y-102100000D02*
X79600000Y-102100000D01*
X73700000Y-102100000D02*
X76150000Y-102100000D01*
X85700000Y-106350000D02*
X70100000Y-106350000D01*
X70100000Y-106350000D02*
X70100000Y-86550000D01*
%TO.C,Q2*%
X62486000Y-84705000D02*
X65646000Y-84705000D01*
X62486000Y-84705000D02*
X62486000Y-83775000D01*
X62486000Y-81545000D02*
X63946000Y-81545000D01*
X62486000Y-81545000D02*
X62486000Y-82475000D01*
%TO.C,J4*%
X65692000Y-113125000D02*
G75*
G03*
X62332000Y-113125000I-1680000J0D01*
G01*
X62332000Y-113125000D02*
G75*
G03*
X65692000Y-113125000I1680000J0D01*
G01*
X60612000Y-113125000D02*
G75*
G03*
X57252000Y-113125000I-1680000J0D01*
G01*
X57252000Y-113125000D02*
G75*
G03*
X60612000Y-113125000I1680000J0D01*
G01*
X55387000Y-113809000D02*
G75*
G03*
X55387426Y-112441958I-1535000J684000D01*
G01*
X53852000Y-114804999D02*
G75*
G03*
X54535318Y-114659755I0J1679999D01*
G01*
X53168000Y-114659999D02*
G75*
G03*
X53880805Y-114805252I683999J1535000D01*
G01*
X54535999Y-111590001D02*
G75*
G03*
X53168958Y-111589574I-684000J-1534992D01*
G01*
X52317001Y-112441001D02*
G75*
G03*
X52316574Y-113808042I1534992J-684000D01*
G01*
X66612000Y-107864000D02*
X66612000Y-117785000D01*
X65287000Y-112056000D02*
X65240000Y-112102000D01*
X65082000Y-111850000D02*
X65047000Y-111886000D01*
X62978000Y-114364000D02*
X62943000Y-114399000D01*
X62785000Y-114148000D02*
X62738000Y-114194000D01*
X60207000Y-112056000D02*
X60160000Y-112102000D01*
X60002000Y-111850000D02*
X59967000Y-111886000D01*
X57898000Y-114364000D02*
X57863000Y-114399000D01*
X57705000Y-114148000D02*
X57658000Y-114194000D01*
X51252000Y-117785000D02*
X66612000Y-117785000D01*
X51252000Y-117225000D02*
X66612000Y-117225000D01*
X51252000Y-115725000D02*
X66612000Y-115725000D01*
X51252000Y-110824000D02*
X66612000Y-110824000D01*
X51252000Y-107864000D02*
X66612000Y-107864000D01*
X51252000Y-107864000D02*
X51252000Y-117785000D01*
X51012000Y-118025000D02*
X51512000Y-118025000D01*
X51012000Y-117285000D02*
X51012000Y-118025000D01*
%TO.C,C8*%
X93499000Y-41895752D02*
X93499000Y-41373248D01*
X94969000Y-41895752D02*
X94969000Y-41373248D01*
%TO.C,R10*%
X99594936Y-28983000D02*
X100049064Y-28983000D01*
X99594936Y-30453000D02*
X100049064Y-30453000D01*
%TO.C,D9*%
X52143000Y-40584000D02*
X52143000Y-38664000D01*
X52143000Y-38664000D02*
X49283000Y-38664000D01*
X49283000Y-40584000D02*
X52143000Y-40584000D01*
%TO.C,C4*%
X42606500Y-69975500D02*
X42606500Y-69188000D01*
X42212750Y-69581750D02*
X43000250Y-69581750D01*
X42108437Y-68948000D02*
X43394000Y-68948000D01*
X42108437Y-68948000D02*
X41044000Y-67883563D01*
X46799563Y-68948000D02*
X45514000Y-68948000D01*
X46799563Y-68948000D02*
X47864000Y-67883563D01*
X41044000Y-67883563D02*
X41044000Y-62128000D01*
X47864000Y-67883563D02*
X47864000Y-62128000D01*
X41044000Y-62128000D02*
X43394000Y-62128000D01*
X47864000Y-62128000D02*
X45514000Y-62128000D01*
%TO.C,R1*%
X42489000Y-45060936D02*
X42489000Y-45515064D01*
X41019000Y-45060936D02*
X41019000Y-45515064D01*
%TO.C,R14*%
X97816936Y-65051000D02*
X98271064Y-65051000D01*
X97816936Y-66521000D02*
X98271064Y-66521000D01*
%TO.C,D3*%
X31200000Y-81475000D02*
X31200000Y-84775000D01*
X31200000Y-81475000D02*
X38100000Y-81475000D01*
X31200000Y-84775000D02*
X38100000Y-84775000D01*
%TO.C,D1*%
X31624000Y-31324000D02*
X34924000Y-31324000D01*
X31624000Y-31324000D02*
X31624000Y-24424000D01*
X34924000Y-31324000D02*
X34924000Y-24424000D01*
%TO.C,J5*%
X60508000Y-22590000D02*
X60508000Y-21850000D01*
X60508000Y-21850000D02*
X60008000Y-21850000D01*
X60268000Y-32011000D02*
X60268000Y-22090000D01*
X60268000Y-32011000D02*
X49988000Y-32011000D01*
X60268000Y-29051000D02*
X49988000Y-29051000D01*
X60268000Y-24150000D02*
X49988000Y-24150000D01*
X60268000Y-22650000D02*
X49988000Y-22650000D01*
X60268000Y-22090000D02*
X49988000Y-22090000D01*
X53815000Y-25727000D02*
X53862000Y-25681000D01*
X53622000Y-25511000D02*
X53657000Y-25476000D01*
X51518000Y-28025000D02*
X51553000Y-27989000D01*
X51313000Y-27819000D02*
X51360000Y-27773000D01*
X49988000Y-32011000D02*
X49988000Y-22090000D01*
X59202999Y-27433999D02*
G75*
G03*
X59203426Y-26066958I-1534992J684000D01*
G01*
X56984001Y-28284999D02*
G75*
G03*
X58351042Y-28285426I684000J1534992D01*
G01*
X58352000Y-25215001D02*
G75*
G03*
X57639195Y-25069748I-683999J-1535000D01*
G01*
X57668000Y-25070001D02*
G75*
G03*
X56984682Y-25215245I0J-1679999D01*
G01*
X56133000Y-26066000D02*
G75*
G03*
X56132574Y-27433042I1535000J-684000D01*
G01*
X54268000Y-26750000D02*
G75*
G03*
X50908000Y-26750000I-1680000J0D01*
G01*
X50908000Y-26750000D02*
G75*
G03*
X54268000Y-26750000I1680000J0D01*
G01*
%TO.C,R12*%
X27827064Y-90515000D02*
X27372936Y-90515000D01*
X27827064Y-89045000D02*
X27372936Y-89045000D01*
%TO.C,Q3*%
X81536000Y-84705000D02*
X84696000Y-84705000D01*
X81536000Y-84705000D02*
X81536000Y-83775000D01*
X81536000Y-81545000D02*
X82996000Y-81545000D01*
X81536000Y-81545000D02*
X81536000Y-82475000D01*
%TO.C,J9*%
X91745000Y-22403000D02*
X91745000Y-21663000D01*
X91745000Y-21663000D02*
X91245000Y-21663000D01*
X91505000Y-31824000D02*
X91505000Y-21903000D01*
X91505000Y-31824000D02*
X76145000Y-31824000D01*
X91505000Y-28864000D02*
X76145000Y-28864000D01*
X91505000Y-23963000D02*
X76145000Y-23963000D01*
X91505000Y-22463000D02*
X76145000Y-22463000D01*
X91505000Y-21903000D02*
X76145000Y-21903000D01*
X85052000Y-25540000D02*
X85099000Y-25494000D01*
X84859000Y-25324000D02*
X84894000Y-25289000D01*
X82755000Y-27838000D02*
X82790000Y-27802000D01*
X82550000Y-27632000D02*
X82597000Y-27586000D01*
X79972000Y-25540000D02*
X80019000Y-25494000D01*
X79779000Y-25324000D02*
X79814000Y-25289000D01*
X77675000Y-27838000D02*
X77710000Y-27802000D01*
X77470000Y-27632000D02*
X77517000Y-27586000D01*
X76145000Y-31824000D02*
X76145000Y-21903000D01*
X90439999Y-27246999D02*
G75*
G03*
X90440426Y-25879958I-1534992J684000D01*
G01*
X88221001Y-28097999D02*
G75*
G03*
X89588042Y-28098426I684000J1534992D01*
G01*
X89589000Y-25028001D02*
G75*
G03*
X88876195Y-24882748I-683999J-1535000D01*
G01*
X88905000Y-24883001D02*
G75*
G03*
X88221682Y-25028245I0J-1679999D01*
G01*
X87370000Y-25879000D02*
G75*
G03*
X87369574Y-27246042I1535000J-684000D01*
G01*
X85505000Y-26563000D02*
G75*
G03*
X82145000Y-26563000I-1680000J0D01*
G01*
X82145000Y-26563000D02*
G75*
G03*
X85505000Y-26563000I1680000J0D01*
G01*
X80425000Y-26563000D02*
G75*
G03*
X77065000Y-26563000I-1680000J0D01*
G01*
X77065000Y-26563000D02*
G75*
G03*
X80425000Y-26563000I1680000J0D01*
G01*
%TO.C,D10*%
X57361000Y-40584000D02*
X57361000Y-38664000D01*
X57361000Y-38664000D02*
X54501000Y-38664000D01*
X54501000Y-40584000D02*
X57361000Y-40584000D01*
%TO.C,D4*%
X51226000Y-81475000D02*
X51226000Y-84775000D01*
X51226000Y-81475000D02*
X58126000Y-81475000D01*
X51226000Y-84775000D02*
X58126000Y-84775000D01*
%TO.C,R2*%
X42489000Y-49160936D02*
X42489000Y-49615064D01*
X41019000Y-49160936D02*
X41019000Y-49615064D01*
%TO.C,C3*%
X27451500Y-52650500D02*
X27451500Y-53438000D01*
X27845250Y-53044250D02*
X27057750Y-53044250D01*
X27949563Y-53678000D02*
X26664000Y-53678000D01*
X27949563Y-53678000D02*
X29014000Y-54742437D01*
X23258437Y-53678000D02*
X24544000Y-53678000D01*
X23258437Y-53678000D02*
X22194000Y-54742437D01*
X29014000Y-54742437D02*
X29014000Y-60498000D01*
X22194000Y-54742437D02*
X22194000Y-60498000D01*
X29014000Y-60498000D02*
X26664000Y-60498000D01*
X22194000Y-60498000D02*
X24544000Y-60498000D01*
%TO.C,U4*%
X65940000Y-42353000D02*
X65940000Y-47553000D01*
X65940000Y-47553000D02*
X71240000Y-47553000D01*
X67590000Y-42353000D02*
X65940000Y-42353000D01*
X71240000Y-42353000D02*
X69590000Y-42353000D01*
X71240000Y-47553000D02*
X71240000Y-42353000D01*
X67590000Y-42353000D02*
G75*
G03*
X69590000Y-42353000I1000000J0D01*
G01*
%TO.C,J7*%
X70229000Y-117235000D02*
X70229000Y-117975000D01*
X70229000Y-117975000D02*
X70729000Y-117975000D01*
X70469000Y-107814000D02*
X70469000Y-117735000D01*
X70469000Y-107814000D02*
X85829000Y-107814000D01*
X70469000Y-110774000D02*
X85829000Y-110774000D01*
X70469000Y-115675000D02*
X85829000Y-115675000D01*
X70469000Y-117175000D02*
X85829000Y-117175000D01*
X70469000Y-117735000D02*
X85829000Y-117735000D01*
X76922000Y-114098000D02*
X76875000Y-114144000D01*
X77115000Y-114314000D02*
X77080000Y-114349000D01*
X79219000Y-111800000D02*
X79184000Y-111836000D01*
X79424000Y-112006000D02*
X79377000Y-112052000D01*
X82002000Y-114098000D02*
X81955000Y-114144000D01*
X82195000Y-114314000D02*
X82160000Y-114349000D01*
X84299000Y-111800000D02*
X84264000Y-111836000D01*
X84504000Y-112006000D02*
X84457000Y-112052000D01*
X85829000Y-107814000D02*
X85829000Y-117735000D01*
X71534001Y-112391001D02*
G75*
G03*
X71533574Y-113758042I1534992J-684000D01*
G01*
X73752999Y-111540001D02*
G75*
G03*
X72385958Y-111539574I-684000J-1534992D01*
G01*
X72385000Y-114609999D02*
G75*
G03*
X73097805Y-114755252I683999J1535000D01*
G01*
X73069000Y-114754999D02*
G75*
G03*
X73752318Y-114609755I0J1679999D01*
G01*
X74604000Y-113759000D02*
G75*
G03*
X74604426Y-112391958I-1535000J684000D01*
G01*
X79829000Y-113075000D02*
G75*
G03*
X76469000Y-113075000I-1680000J0D01*
G01*
X76469000Y-113075000D02*
G75*
G03*
X79829000Y-113075000I1680000J0D01*
G01*
X84909000Y-113075000D02*
G75*
G03*
X81549000Y-113075000I-1680000J0D01*
G01*
X81549000Y-113075000D02*
G75*
G03*
X84909000Y-113075000I1680000J0D01*
G01*
%TO.C,C6*%
X40592748Y-71753000D02*
X41115252Y-71753000D01*
X40592748Y-73223000D02*
X41115252Y-73223000D01*
%TO.C,TP1*%
X47304000Y-72938000D02*
G75*
G03*
X44304000Y-72938000I-1500000J0D01*
G01*
X44304000Y-72938000D02*
G75*
G03*
X47304000Y-72938000I1500000J0D01*
G01*
%TO.C,R7*%
X66829000Y-83452064D02*
X66829000Y-82997936D01*
X68299000Y-83452064D02*
X68299000Y-82997936D01*
%TO.C,D14*%
X89326000Y-81475000D02*
X89326000Y-84775000D01*
X89326000Y-81475000D02*
X96226000Y-81475000D01*
X89326000Y-84775000D02*
X96226000Y-84775000D01*
%TO.C,U2*%
X35854000Y-78198000D02*
X29844000Y-78198000D01*
X33604000Y-71378000D02*
X29844000Y-71378000D01*
X29844000Y-78198000D02*
X29844000Y-76938000D01*
X29844000Y-71378000D02*
X29844000Y-72638000D01*
%TO.C,U3*%
X119745000Y-44966000D02*
X119745000Y-61206000D01*
X112125000Y-44966000D02*
X112125000Y-44356000D01*
X112125000Y-44966000D02*
X119745000Y-44966000D01*
X95505000Y-44966000D02*
X96125000Y-44966000D01*
X95505000Y-47086000D02*
X95505000Y-44966000D01*
X119745000Y-61206000D02*
X112125000Y-61206000D01*
X96125000Y-61206000D02*
X95505000Y-61206000D01*
X95505000Y-61206000D02*
X95505000Y-59086000D01*
%TO.C,R9*%
X50010936Y-35587000D02*
X50465064Y-35587000D01*
X50010936Y-37057000D02*
X50465064Y-37057000D01*
%TO.C,J2*%
X103826000Y-79562000D02*
X103826000Y-78232000D01*
X105156000Y-79562000D02*
X103826000Y-79562000D01*
X106426000Y-79562000D02*
X119186000Y-79562000D01*
X106426000Y-79562000D02*
X106426000Y-76902000D01*
X119186000Y-79562000D02*
X119186000Y-76902000D01*
X106426000Y-76902000D02*
X119186000Y-76902000D01*
%TO.C,Q1*%
X42698000Y-81545000D02*
X42698000Y-82475000D01*
X42698000Y-81545000D02*
X44158000Y-81545000D01*
X42698000Y-84705000D02*
X42698000Y-83775000D01*
X42698000Y-84705000D02*
X45858000Y-84705000D01*
%TO.C,R16*%
X112564936Y-92745000D02*
X113019064Y-92745000D01*
X112564936Y-94215000D02*
X113019064Y-94215000D01*
%TO.C,R19*%
X105945000Y-83452064D02*
X105945000Y-82997936D01*
X107415000Y-83452064D02*
X107415000Y-82997936D01*
%TO.C,TP2*%
X51804000Y-72938000D02*
G75*
G03*
X48804000Y-72938000I-1500000J0D01*
G01*
X48804000Y-72938000D02*
G75*
G03*
X51804000Y-72938000I1500000J0D01*
G01*
%TO.C,R11*%
X55228936Y-35587000D02*
X55683064Y-35587000D01*
X55228936Y-37057000D02*
X55683064Y-37057000D01*
%TO.C,D7*%
X24585000Y-90785000D02*
X24585000Y-88865000D01*
X24585000Y-88865000D02*
X21725000Y-88865000D01*
X21725000Y-90785000D02*
X24585000Y-90785000D01*
%TO.C,D8*%
X24585000Y-94485000D02*
X24585000Y-92565000D01*
X24585000Y-92565000D02*
X21725000Y-92565000D01*
X21725000Y-94485000D02*
X24585000Y-94485000D01*
%TO.C,D5*%
X60026000Y-51942000D02*
X60026000Y-48642000D01*
X60026000Y-51942000D02*
X53126000Y-51942000D01*
X60026000Y-48642000D02*
X53126000Y-48642000D01*
%TO.C,U1*%
X27654000Y-46238000D02*
X28604000Y-46238000D01*
X28604000Y-46238000D02*
X28604000Y-51363000D01*
X37104000Y-46238000D02*
X37104000Y-47338000D01*
X38054000Y-46238000D02*
X37104000Y-46238000D01*
X27654000Y-44738000D02*
X27654000Y-46238000D01*
X38054000Y-44738000D02*
X38054000Y-46238000D01*
%TO.C,J1*%
X47790000Y-22590000D02*
X47790000Y-21850000D01*
X47790000Y-21850000D02*
X47290000Y-21850000D01*
X47550000Y-32011000D02*
X47550000Y-22090000D01*
X47550000Y-32011000D02*
X37270000Y-32011000D01*
X47550000Y-29051000D02*
X37270000Y-29051000D01*
X47550000Y-24150000D02*
X37270000Y-24150000D01*
X47550000Y-22650000D02*
X37270000Y-22650000D01*
X47550000Y-22090000D02*
X37270000Y-22090000D01*
X41097000Y-25727000D02*
X41144000Y-25681000D01*
X40904000Y-25511000D02*
X40939000Y-25476000D01*
X38800000Y-28025000D02*
X38835000Y-27989000D01*
X38595000Y-27819000D02*
X38642000Y-27773000D01*
X37270000Y-32011000D02*
X37270000Y-22090000D01*
X46484999Y-27433999D02*
G75*
G03*
X46485426Y-26066958I-1534992J684000D01*
G01*
X44266001Y-28284999D02*
G75*
G03*
X45633042Y-28285426I684000J1534992D01*
G01*
X45634000Y-25215001D02*
G75*
G03*
X44921195Y-25069748I-683999J-1535000D01*
G01*
X44950000Y-25070001D02*
G75*
G03*
X44266682Y-25215245I0J-1679999D01*
G01*
X43415000Y-26066000D02*
G75*
G03*
X43414574Y-27433042I1535000J-684000D01*
G01*
X41550000Y-26750000D02*
G75*
G03*
X38190000Y-26750000I-1680000J0D01*
G01*
X38190000Y-26750000D02*
G75*
G03*
X41550000Y-26750000I1680000J0D01*
G01*
%TO.C,J3*%
X32675000Y-117251000D02*
X32675000Y-117991000D01*
X32675000Y-117991000D02*
X33175000Y-117991000D01*
X32915000Y-107830000D02*
X32915000Y-117751000D01*
X32915000Y-107830000D02*
X48275000Y-107830000D01*
X32915000Y-110790000D02*
X48275000Y-110790000D01*
X32915000Y-115691000D02*
X48275000Y-115691000D01*
X32915000Y-117191000D02*
X48275000Y-117191000D01*
X32915000Y-117751000D02*
X48275000Y-117751000D01*
X39368000Y-114114000D02*
X39321000Y-114160000D01*
X39561000Y-114330000D02*
X39526000Y-114365000D01*
X41665000Y-111816000D02*
X41630000Y-111852000D01*
X41870000Y-112022000D02*
X41823000Y-112068000D01*
X44448000Y-114114000D02*
X44401000Y-114160000D01*
X44641000Y-114330000D02*
X44606000Y-114365000D01*
X46745000Y-111816000D02*
X46710000Y-111852000D01*
X46950000Y-112022000D02*
X46903000Y-112068000D01*
X48275000Y-107830000D02*
X48275000Y-117751000D01*
X33980001Y-112407001D02*
G75*
G03*
X33979574Y-113774042I1534992J-684000D01*
G01*
X36198999Y-111556001D02*
G75*
G03*
X34831958Y-111555574I-684000J-1534992D01*
G01*
X34831000Y-114625999D02*
G75*
G03*
X35543805Y-114771252I683999J1535000D01*
G01*
X35515000Y-114770999D02*
G75*
G03*
X36198318Y-114625755I0J1679999D01*
G01*
X37050000Y-113775000D02*
G75*
G03*
X37050426Y-112407958I-1535000J684000D01*
G01*
X42275000Y-113091000D02*
G75*
G03*
X38915000Y-113091000I-1680000J0D01*
G01*
X38915000Y-113091000D02*
G75*
G03*
X42275000Y-113091000I1680000J0D01*
G01*
X47355000Y-113091000D02*
G75*
G03*
X43995000Y-113091000I-1680000J0D01*
G01*
X43995000Y-113091000D02*
G75*
G03*
X47355000Y-113091000I1680000J0D01*
G01*
%TO.C,U5*%
X65940000Y-35241000D02*
X65940000Y-40441000D01*
X65940000Y-40441000D02*
X71240000Y-40441000D01*
X67590000Y-35241000D02*
X65940000Y-35241000D01*
X71240000Y-35241000D02*
X69590000Y-35241000D01*
X71240000Y-40441000D02*
X71240000Y-35241000D01*
X67590000Y-35241000D02*
G75*
G03*
X69590000Y-35241000I1000000J0D01*
G01*
%TO.C,R17*%
X86641000Y-83452064D02*
X86641000Y-82997936D01*
X88111000Y-83452064D02*
X88111000Y-82997936D01*
%TO.C,J6*%
X73208000Y-22590000D02*
X73208000Y-21850000D01*
X73208000Y-21850000D02*
X72708000Y-21850000D01*
X72968000Y-32011000D02*
X72968000Y-22090000D01*
X72968000Y-32011000D02*
X62688000Y-32011000D01*
X72968000Y-29051000D02*
X62688000Y-29051000D01*
X72968000Y-24150000D02*
X62688000Y-24150000D01*
X72968000Y-22650000D02*
X62688000Y-22650000D01*
X72968000Y-22090000D02*
X62688000Y-22090000D01*
X66515000Y-25727000D02*
X66562000Y-25681000D01*
X66322000Y-25511000D02*
X66357000Y-25476000D01*
X64218000Y-28025000D02*
X64253000Y-27989000D01*
X64013000Y-27819000D02*
X64060000Y-27773000D01*
X62688000Y-32011000D02*
X62688000Y-22090000D01*
X71902999Y-27433999D02*
G75*
G03*
X71903426Y-26066958I-1534992J684000D01*
G01*
X69684001Y-28284999D02*
G75*
G03*
X71051042Y-28285426I684000J1534992D01*
G01*
X71052000Y-25215001D02*
G75*
G03*
X70339195Y-25069748I-683999J-1535000D01*
G01*
X70368000Y-25070001D02*
G75*
G03*
X69684682Y-25215245I0J-1679999D01*
G01*
X68833000Y-26066000D02*
G75*
G03*
X68832574Y-27433042I1535000J-684000D01*
G01*
X66968000Y-26750000D02*
G75*
G03*
X63608000Y-26750000I-1680000J0D01*
G01*
X63608000Y-26750000D02*
G75*
G03*
X66968000Y-26750000I1680000J0D01*
G01*
%TO.C,R3*%
X98287064Y-68553000D02*
X97832936Y-68553000D01*
X98287064Y-67083000D02*
X97832936Y-67083000D01*
%TO.C,D6*%
X60026000Y-46100000D02*
X60026000Y-42800000D01*
X60026000Y-46100000D02*
X53126000Y-46100000D01*
X60026000Y-42800000D02*
X53126000Y-42800000D01*
%TO.C,C10*%
X96293000Y-41917252D02*
X96293000Y-41394748D01*
X97763000Y-41917252D02*
X97763000Y-41394748D01*
%TO.C,R20*%
X99594936Y-32285000D02*
X100049064Y-32285000D01*
X99594936Y-33755000D02*
X100049064Y-33755000D01*
%TO.C,J8*%
X88775000Y-117110000D02*
X88775000Y-117850000D01*
X88775000Y-117850000D02*
X89275000Y-117850000D01*
X89015000Y-107689000D02*
X89015000Y-117610000D01*
X89015000Y-107689000D02*
X104375000Y-107689000D01*
X89015000Y-110649000D02*
X104375000Y-110649000D01*
X89015000Y-115550000D02*
X104375000Y-115550000D01*
X89015000Y-117050000D02*
X104375000Y-117050000D01*
X89015000Y-117610000D02*
X104375000Y-117610000D01*
X95468000Y-113973000D02*
X95421000Y-114019000D01*
X95661000Y-114189000D02*
X95626000Y-114224000D01*
X97765000Y-111675000D02*
X97730000Y-111711000D01*
X97970000Y-111881000D02*
X97923000Y-111927000D01*
X100548000Y-113973000D02*
X100501000Y-114019000D01*
X100741000Y-114189000D02*
X100706000Y-114224000D01*
X102845000Y-111675000D02*
X102810000Y-111711000D01*
X103050000Y-111881000D02*
X103003000Y-111927000D01*
X104375000Y-107689000D02*
X104375000Y-117610000D01*
X90080001Y-112266001D02*
G75*
G03*
X90079574Y-113633042I1534992J-684000D01*
G01*
X92298999Y-111415001D02*
G75*
G03*
X90931958Y-111414574I-684000J-1534992D01*
G01*
X90931000Y-114484999D02*
G75*
G03*
X91643805Y-114630252I683999J1535000D01*
G01*
X91615000Y-114629999D02*
G75*
G03*
X92298318Y-114484755I0J1679999D01*
G01*
X93150000Y-113634000D02*
G75*
G03*
X93150426Y-112266958I-1535000J684000D01*
G01*
X98375000Y-112950000D02*
G75*
G03*
X95015000Y-112950000I-1680000J0D01*
G01*
X95015000Y-112950000D02*
G75*
G03*
X98375000Y-112950000I1680000J0D01*
G01*
X103455000Y-112950000D02*
G75*
G03*
X100095000Y-112950000I-1680000J0D01*
G01*
X100095000Y-112950000D02*
G75*
G03*
X103455000Y-112950000I1680000J0D01*
G01*
%TO.C,D11*%
X115243000Y-92565000D02*
X115243000Y-94485000D01*
X115243000Y-94485000D02*
X118103000Y-94485000D01*
X118103000Y-92565000D02*
X115243000Y-92565000D01*
%TO.C,D13*%
X115243000Y-88865000D02*
X115243000Y-90785000D01*
X115243000Y-90785000D02*
X118103000Y-90785000D01*
X118103000Y-88865000D02*
X115243000Y-88865000D01*
%TO.C,C5*%
X46915252Y-57123000D02*
X46392748Y-57123000D01*
X46915252Y-55653000D02*
X46392748Y-55653000D01*
%TO.C,L1*%
X36514000Y-69229651D02*
G75*
G03*
X36514000Y-62146349I-1560000J3541651D01*
G01*
X33394000Y-62146349D02*
G75*
G03*
X33394000Y-69229651I1560000J-3541651D01*
G01*
%TO.C,SW1*%
X97440000Y-21387500D02*
X97440000Y-25287500D01*
X97440000Y-21387500D02*
X105160000Y-21387500D01*
X97440000Y-27887500D02*
X97440000Y-28397500D01*
X97440000Y-28397500D02*
X97960000Y-28397500D01*
X97960000Y-25057500D02*
X97960000Y-25287500D01*
X97960000Y-25057500D02*
X98500000Y-25057500D01*
X97960000Y-27887500D02*
X97960000Y-28397500D01*
X99600000Y-25057500D02*
X103000000Y-25057500D01*
X104100000Y-25057500D02*
X104640000Y-25057500D01*
X104640000Y-25057500D02*
X104640000Y-25287500D01*
X104640000Y-27887500D02*
X104640000Y-28397500D01*
X104640000Y-28397500D02*
X105160000Y-28397500D01*
X105160000Y-21387500D02*
X105160000Y-25287500D01*
X105160000Y-27887500D02*
X105160000Y-28397500D01*
%TD*%
M02*
