%TF.GenerationSoftware,KiCad,Pcbnew,7.0.10*%
%TF.CreationDate,2025-03-17T10:36:42-03:00*%
%TF.ProjectId,MicroCerveceria,4d696372-6f43-4657-9276-656365726961,rev?*%
%TF.SameCoordinates,Original*%
%TF.FileFunction,Soldermask,Top*%
%TF.FilePolarity,Negative*%
%FSLAX46Y46*%
G04 Gerber Fmt 4.6, Leading zero omitted, Abs format (unit mm)*
G04 Created by KiCad (PCBNEW 7.0.10) date 2025-03-17 10:36:42*
%MOMM*%
%LPD*%
G01*
G04 APERTURE LIST*
G04 Aperture macros list*
%AMRoundRect*
0 Rectangle with rounded corners*
0 $1 Rounding radius*
0 $2 $3 $4 $5 $6 $7 $8 $9 X,Y pos of 4 corners*
0 Add a 4 corners polygon primitive as box body*
4,1,4,$2,$3,$4,$5,$6,$7,$8,$9,$2,$3,0*
0 Add four circle primitives for the rounded corners*
1,1,$1+$1,$2,$3*
1,1,$1+$1,$4,$5*
1,1,$1+$1,$6,$7*
1,1,$1+$1,$8,$9*
0 Add four rect primitives between the rounded corners*
20,1,$1+$1,$2,$3,$4,$5,0*
20,1,$1+$1,$4,$5,$6,$7,0*
20,1,$1+$1,$6,$7,$8,$9,0*
20,1,$1+$1,$8,$9,$2,$3,0*%
G04 Aperture macros list end*
%ADD10R,3.500000X1.800000*%
%ADD11C,3.000000*%
%ADD12C,2.500000*%
%ADD13R,1.900000X0.800000*%
%ADD14RoundRect,0.250000X-0.350000X-0.450000X0.350000X-0.450000X0.350000X0.450000X-0.350000X0.450000X0*%
%ADD15RoundRect,0.250000X-0.475000X0.337500X-0.475000X-0.337500X0.475000X-0.337500X0.475000X0.337500X0*%
%ADD16RoundRect,0.250000X0.350000X0.450000X-0.350000X0.450000X-0.350000X-0.450000X0.350000X-0.450000X0*%
%ADD17RoundRect,0.250000X0.475000X-0.337500X0.475000X0.337500X-0.475000X0.337500X-0.475000X-0.337500X0*%
%ADD18R,2.500000X3.300000*%
%ADD19RoundRect,0.250000X0.450000X-0.350000X0.450000X0.350000X-0.450000X0.350000X-0.450000X-0.350000X0*%
%ADD20C,2.600000*%
%ADD21R,2.600000X2.600000*%
%ADD22C,8.000000*%
%ADD23RoundRect,0.250000X0.325000X0.450000X-0.325000X0.450000X-0.325000X-0.450000X0.325000X-0.450000X0*%
%ADD24RoundRect,0.250000X0.550000X-1.500000X0.550000X1.500000X-0.550000X1.500000X-0.550000X-1.500000X0*%
%ADD25RoundRect,0.250000X-0.450000X0.350000X-0.450000X-0.350000X0.450000X-0.350000X0.450000X0.350000X0*%
%ADD26R,1.800000X3.500000*%
%ADD27RoundRect,0.250000X-0.550000X1.500000X-0.550000X-1.500000X0.550000X-1.500000X0.550000X1.500000X0*%
%ADD28R,1.600000X1.600000*%
%ADD29O,1.600000X1.600000*%
%ADD30RoundRect,0.250000X-0.337500X-0.475000X0.337500X-0.475000X0.337500X0.475000X-0.337500X0.475000X0*%
%ADD31C,2.000000*%
%ADD32R,2.000000X1.500000*%
%ADD33R,2.000000X3.800000*%
%ADD34R,1.000000X2.500000*%
%ADD35R,1.800000X1.000000*%
%ADD36R,1.700000X1.700000*%
%ADD37O,1.700000X1.700000*%
%ADD38R,1.100000X4.600000*%
%ADD39R,10.800000X9.400000*%
%ADD40RoundRect,0.250000X-0.325000X-0.450000X0.325000X-0.450000X0.325000X0.450000X-0.325000X0.450000X0*%
%ADD41RoundRect,0.250000X0.337500X0.475000X-0.337500X0.475000X-0.337500X-0.475000X0.337500X-0.475000X0*%
%ADD42C,2.100000*%
%ADD43C,1.750000*%
G04 APERTURE END LIST*
D10*
%TO.C,D12*%
X71922000Y-83125000D03*
X76922000Y-83125000D03*
%TD*%
D11*
%TO.C,K4*%
X96700000Y-87950000D03*
D12*
X90650000Y-89900000D03*
D11*
X90650000Y-102100000D03*
X102700000Y-102150000D03*
D12*
X102650000Y-89900000D03*
%TD*%
D13*
%TO.C,Q4*%
X103124000Y-84075000D03*
X103124000Y-82175000D03*
X100124000Y-83125000D03*
%TD*%
D14*
%TO.C,R8*%
X98822000Y-36322000D03*
X100822000Y-36322000D03*
%TD*%
D15*
%TO.C,C1*%
X45254000Y-48350500D03*
X45254000Y-50425500D03*
%TD*%
D16*
%TO.C,R13*%
X28600000Y-93500000D03*
X26600000Y-93500000D03*
%TD*%
D15*
%TO.C,C7*%
X39954000Y-74750500D03*
X39954000Y-76825500D03*
%TD*%
D16*
%TO.C,R15*%
X99044000Y-63754000D03*
X97044000Y-63754000D03*
%TD*%
%TO.C,R4*%
X99060000Y-69850000D03*
X97060000Y-69850000D03*
%TD*%
D14*
%TO.C,R18*%
X111792000Y-89780000D03*
X113792000Y-89780000D03*
%TD*%
D11*
%TO.C,K2*%
X59191000Y-87950000D03*
D12*
X53141000Y-89900000D03*
D11*
X53141000Y-102100000D03*
X65191000Y-102150000D03*
D12*
X65141000Y-89900000D03*
%TD*%
D17*
%TO.C,C2*%
X25754000Y-49825500D03*
X25754000Y-47750500D03*
%TD*%
D11*
%TO.C,K1*%
X40600000Y-87950000D03*
D12*
X34550000Y-89900000D03*
D11*
X34550000Y-102100000D03*
X46600000Y-102150000D03*
D12*
X46550000Y-89900000D03*
%TD*%
D18*
%TO.C,D2*%
X34954000Y-56388000D03*
X41754000Y-56388000D03*
%TD*%
D19*
%TO.C,R5*%
X107188000Y-36254500D03*
X107188000Y-34254500D03*
%TD*%
%TO.C,R6*%
X48033000Y-84175000D03*
X48033000Y-82175000D03*
%TD*%
D11*
%TO.C,K3*%
X77900000Y-87950000D03*
D12*
X71850000Y-89900000D03*
D11*
X71850000Y-102100000D03*
X83900000Y-102150000D03*
D12*
X83850000Y-89900000D03*
%TD*%
D13*
%TO.C,Q2*%
X64746000Y-84075000D03*
X64746000Y-82175000D03*
X61746000Y-83125000D03*
%TD*%
D20*
%TO.C,J4*%
X64012000Y-113125000D03*
X58932000Y-113125000D03*
D21*
X53852000Y-113125000D03*
%TD*%
D22*
%TO.C,H3*%
X115000000Y-115000000D03*
%TD*%
D17*
%TO.C,C8*%
X94234000Y-42672000D03*
X94234000Y-40597000D03*
%TD*%
D14*
%TO.C,R10*%
X98822000Y-29718000D03*
X100822000Y-29718000D03*
%TD*%
D23*
%TO.C,D9*%
X51308000Y-39624000D03*
X49258000Y-39624000D03*
%TD*%
D24*
%TO.C,C4*%
X44454000Y-68238000D03*
X44454000Y-62838000D03*
%TD*%
D25*
%TO.C,R1*%
X41754000Y-44288000D03*
X41754000Y-46288000D03*
%TD*%
D14*
%TO.C,R14*%
X97044000Y-65786000D03*
X99044000Y-65786000D03*
%TD*%
D10*
%TO.C,D3*%
X33100000Y-83125000D03*
X38100000Y-83125000D03*
%TD*%
D26*
%TO.C,D1*%
X33274000Y-29424000D03*
X33274000Y-24424000D03*
%TD*%
D21*
%TO.C,J5*%
X57668000Y-26750000D03*
D20*
X52588000Y-26750000D03*
%TD*%
D16*
%TO.C,R12*%
X28600000Y-89780000D03*
X26600000Y-89780000D03*
%TD*%
D22*
%TO.C,H2*%
X115000000Y-25000000D03*
%TD*%
D13*
%TO.C,Q3*%
X83796000Y-84075000D03*
X83796000Y-82175000D03*
X80796000Y-83125000D03*
%TD*%
D21*
%TO.C,J9*%
X88905000Y-26563000D03*
D20*
X83825000Y-26563000D03*
X78745000Y-26563000D03*
%TD*%
D23*
%TO.C,D10*%
X56526000Y-39624000D03*
X54476000Y-39624000D03*
%TD*%
D10*
%TO.C,D4*%
X53126000Y-83125000D03*
X58126000Y-83125000D03*
%TD*%
D25*
%TO.C,R2*%
X41754000Y-48388000D03*
X41754000Y-50388000D03*
%TD*%
D27*
%TO.C,C3*%
X25604000Y-54388000D03*
X25604000Y-59788000D03*
%TD*%
D22*
%TO.C,H1*%
X25000000Y-25000000D03*
%TD*%
D28*
%TO.C,U4*%
X64780000Y-43683000D03*
D29*
X64780000Y-46223000D03*
X72400000Y-46223000D03*
X72400000Y-43683000D03*
%TD*%
D21*
%TO.C,J7*%
X73069000Y-113075000D03*
D20*
X78149000Y-113075000D03*
X83229000Y-113075000D03*
%TD*%
D30*
%TO.C,C6*%
X39816500Y-72488000D03*
X41891500Y-72488000D03*
%TD*%
D31*
%TO.C,TP1*%
X45804000Y-72938000D03*
%TD*%
D19*
%TO.C,R7*%
X67564000Y-84225000D03*
X67564000Y-82225000D03*
%TD*%
D10*
%TO.C,D14*%
X91226000Y-83125000D03*
X96226000Y-83125000D03*
%TD*%
D32*
%TO.C,U2*%
X34904000Y-77088000D03*
X34904000Y-74788000D03*
D33*
X28604000Y-74788000D03*
D32*
X34904000Y-72488000D03*
%TD*%
D34*
%TO.C,U3*%
X111125000Y-45486000D03*
X109125000Y-45486000D03*
X107125000Y-45486000D03*
X105125000Y-45486000D03*
X103125000Y-45486000D03*
X101125000Y-45486000D03*
X99125000Y-45486000D03*
X97125000Y-45486000D03*
D35*
X95625000Y-48086000D03*
X95625000Y-50086000D03*
X95625000Y-52086000D03*
X95625000Y-54086000D03*
X95625000Y-56086000D03*
X95625000Y-58086000D03*
D34*
X97125000Y-60686000D03*
X99125000Y-60686000D03*
X101125000Y-60686000D03*
X103125000Y-60686000D03*
X105125000Y-60686000D03*
X107125000Y-60686000D03*
X109125000Y-60686000D03*
X111125000Y-60686000D03*
%TD*%
D14*
%TO.C,R9*%
X49238000Y-36322000D03*
X51238000Y-36322000D03*
%TD*%
D36*
%TO.C,J2*%
X105156000Y-78232000D03*
D37*
X107696000Y-78232000D03*
X110236000Y-78232000D03*
X112776000Y-78232000D03*
X115316000Y-78232000D03*
X117856000Y-78232000D03*
%TD*%
D13*
%TO.C,Q1*%
X41958000Y-83125000D03*
X44958000Y-82175000D03*
X44958000Y-84075000D03*
%TD*%
D14*
%TO.C,R16*%
X111792000Y-93480000D03*
X113792000Y-93480000D03*
%TD*%
D19*
%TO.C,R19*%
X106680000Y-84225000D03*
X106680000Y-82225000D03*
%TD*%
D31*
%TO.C,TP2*%
X50304000Y-72938000D03*
%TD*%
D14*
%TO.C,R11*%
X54456000Y-36322000D03*
X56456000Y-36322000D03*
%TD*%
D23*
%TO.C,D7*%
X23750000Y-89825000D03*
X21700000Y-89825000D03*
%TD*%
%TO.C,D8*%
X23750000Y-93525000D03*
X21700000Y-93525000D03*
%TD*%
D10*
%TO.C,D5*%
X58126000Y-50292000D03*
X53126000Y-50292000D03*
%TD*%
D38*
%TO.C,U1*%
X29454000Y-49063000D03*
X31154000Y-49063000D03*
X32854000Y-49063000D03*
D39*
X32854000Y-39913000D03*
D38*
X34554000Y-49063000D03*
X36254000Y-49063000D03*
%TD*%
D21*
%TO.C,J1*%
X44950000Y-26750000D03*
D20*
X39870000Y-26750000D03*
%TD*%
D22*
%TO.C,H4*%
X25000000Y-115000000D03*
%TD*%
D21*
%TO.C,J3*%
X35515000Y-113091000D03*
D20*
X40595000Y-113091000D03*
X45675000Y-113091000D03*
%TD*%
D28*
%TO.C,U5*%
X64780000Y-36571000D03*
D29*
X64780000Y-39111000D03*
X72400000Y-39111000D03*
X72400000Y-36571000D03*
%TD*%
D19*
%TO.C,R17*%
X87376000Y-84225000D03*
X87376000Y-82225000D03*
%TD*%
D21*
%TO.C,J6*%
X70368000Y-26750000D03*
D20*
X65288000Y-26750000D03*
%TD*%
D16*
%TO.C,R3*%
X99060000Y-67818000D03*
X97060000Y-67818000D03*
%TD*%
D10*
%TO.C,D6*%
X58126000Y-44450000D03*
X53126000Y-44450000D03*
%TD*%
D17*
%TO.C,C10*%
X97028000Y-42693500D03*
X97028000Y-40618500D03*
%TD*%
D14*
%TO.C,R20*%
X98822000Y-33020000D03*
X100822000Y-33020000D03*
%TD*%
D21*
%TO.C,J8*%
X91615000Y-112950000D03*
D20*
X96695000Y-112950000D03*
X101775000Y-112950000D03*
%TD*%
D40*
%TO.C,D11*%
X116078000Y-93525000D03*
X118128000Y-93525000D03*
%TD*%
%TO.C,D13*%
X116078000Y-89825000D03*
X118128000Y-89825000D03*
%TD*%
D41*
%TO.C,C5*%
X47691500Y-56388000D03*
X45616500Y-56388000D03*
%TD*%
D20*
%TO.C,L1*%
X34954000Y-63188000D03*
X34954000Y-68188000D03*
%TD*%
D42*
%TO.C,SW1*%
X97800000Y-26577500D03*
X104810000Y-26577500D03*
D43*
X99050000Y-24087500D03*
X103550000Y-24087500D03*
%TD*%
M02*
