%TF.GenerationSoftware,KiCad,Pcbnew,7.0.10*%
%TF.CreationDate,2025-03-17T10:36:42-03:00*%
%TF.ProjectId,MicroCerveceria,4d696372-6f43-4657-9276-656365726961,rev?*%
%TF.SameCoordinates,Original*%
%TF.FileFunction,Soldermask,Bot*%
%TF.FilePolarity,Negative*%
%FSLAX46Y46*%
G04 Gerber Fmt 4.6, Leading zero omitted, Abs format (unit mm)*
G04 Created by KiCad (PCBNEW 7.0.10) date 2025-03-17 10:36:42*
%MOMM*%
%LPD*%
G01*
G04 APERTURE LIST*
%ADD10C,3.000000*%
%ADD11C,2.500000*%
%ADD12C,2.600000*%
%ADD13R,2.600000X2.600000*%
%ADD14C,8.000000*%
%ADD15R,1.600000X1.600000*%
%ADD16O,1.600000X1.600000*%
%ADD17C,2.000000*%
%ADD18R,1.700000X1.700000*%
%ADD19O,1.700000X1.700000*%
%ADD20C,2.100000*%
%ADD21C,1.750000*%
G04 APERTURE END LIST*
D10*
%TO.C,K4*%
X96700000Y-87950000D03*
D11*
X90650000Y-89900000D03*
D10*
X90650000Y-102100000D03*
X102700000Y-102150000D03*
D11*
X102650000Y-89900000D03*
%TD*%
D10*
%TO.C,K2*%
X59191000Y-87950000D03*
D11*
X53141000Y-89900000D03*
D10*
X53141000Y-102100000D03*
X65191000Y-102150000D03*
D11*
X65141000Y-89900000D03*
%TD*%
D10*
%TO.C,K1*%
X40600000Y-87950000D03*
D11*
X34550000Y-89900000D03*
D10*
X34550000Y-102100000D03*
X46600000Y-102150000D03*
D11*
X46550000Y-89900000D03*
%TD*%
D10*
%TO.C,K3*%
X77900000Y-87950000D03*
D11*
X71850000Y-89900000D03*
D10*
X71850000Y-102100000D03*
X83900000Y-102150000D03*
D11*
X83850000Y-89900000D03*
%TD*%
D12*
%TO.C,J4*%
X64012000Y-113125000D03*
X58932000Y-113125000D03*
D13*
X53852000Y-113125000D03*
%TD*%
D14*
%TO.C,H3*%
X115000000Y-115000000D03*
%TD*%
D13*
%TO.C,J5*%
X57668000Y-26750000D03*
D12*
X52588000Y-26750000D03*
%TD*%
D14*
%TO.C,H2*%
X115000000Y-25000000D03*
%TD*%
D13*
%TO.C,J9*%
X88905000Y-26563000D03*
D12*
X83825000Y-26563000D03*
X78745000Y-26563000D03*
%TD*%
D14*
%TO.C,H1*%
X25000000Y-25000000D03*
%TD*%
D15*
%TO.C,U4*%
X64780000Y-43683000D03*
D16*
X64780000Y-46223000D03*
X72400000Y-46223000D03*
X72400000Y-43683000D03*
%TD*%
D13*
%TO.C,J7*%
X73069000Y-113075000D03*
D12*
X78149000Y-113075000D03*
X83229000Y-113075000D03*
%TD*%
D17*
%TO.C,TP1*%
X45804000Y-72938000D03*
%TD*%
D18*
%TO.C,J2*%
X105156000Y-78232000D03*
D19*
X107696000Y-78232000D03*
X110236000Y-78232000D03*
X112776000Y-78232000D03*
X115316000Y-78232000D03*
X117856000Y-78232000D03*
%TD*%
D17*
%TO.C,TP2*%
X50304000Y-72938000D03*
%TD*%
D13*
%TO.C,J1*%
X44950000Y-26750000D03*
D12*
X39870000Y-26750000D03*
%TD*%
D14*
%TO.C,H4*%
X25000000Y-115000000D03*
%TD*%
D13*
%TO.C,J3*%
X35515000Y-113091000D03*
D12*
X40595000Y-113091000D03*
X45675000Y-113091000D03*
%TD*%
D15*
%TO.C,U5*%
X64780000Y-36571000D03*
D16*
X64780000Y-39111000D03*
X72400000Y-39111000D03*
X72400000Y-36571000D03*
%TD*%
D13*
%TO.C,J6*%
X70368000Y-26750000D03*
D12*
X65288000Y-26750000D03*
%TD*%
D13*
%TO.C,J8*%
X91615000Y-112950000D03*
D12*
X96695000Y-112950000D03*
X101775000Y-112950000D03*
%TD*%
%TO.C,L1*%
X34954000Y-63188000D03*
X34954000Y-68188000D03*
%TD*%
D20*
%TO.C,SW1*%
X97800000Y-26577500D03*
X104810000Y-26577500D03*
D21*
X99050000Y-24087500D03*
X103550000Y-24087500D03*
%TD*%
M02*
